<svg width="234" height="136" viewBox="0 0 234 136" fill="none" xmlns="http://www.w3.org/2000/svg">
<rect x="8.32617" y="0.000244141" width="215.68" height="72.7266" rx="6" fill="white"/>
<path d="M53.5078 33.1281H227.468C230.782 33.1281 233.468 35.8143 233.468 39.1281V91.8312C233.468 95.1449 230.782 97.8312 227.468 97.8312H53.5078V33.1281Z" fill="white"/>
<rect x="0.832031" y="66.8752" width="177.374" height="30.9297" rx="6" fill="white"/>
<path d="M110.423 110.254V97.051H120.249V110.254V110.754H120.749H228.474C230.955 110.754 232.97 112.774 232.97 115.27V130.085C232.97 132.58 230.955 134.6 228.474 134.6H103.368C100.886 134.6 98.8711 132.58 98.8711 130.085V115.27C98.8711 112.774 100.886 110.754 103.368 110.754H109.923H110.423V110.254Z" fill="#CCCCCC" stroke="black"/>
<mask id="mask0_352_2234" style="mask-type:alpha" maskUnits="userSpaceOnUse" x="98" y="96" width="136" height="40">
<path d="M110.673 110.254V97.301H119.999V110.254V111.004H120.749H228.474C230.816 111.004 232.72 112.911 232.72 115.27V130.085C232.72 132.443 230.816 134.35 228.474 134.35H103.368C101.025 134.35 99.1211 132.443 99.1211 130.085V115.27C99.1211 112.911 101.025 111.004 103.368 111.004H109.923H110.673V110.254Z" fill="#CCCCCC" stroke="black" stroke-width="1.5"/>
</mask>
<g mask="url(#mask0_352_2234)">
<path d="M101.391 69.0069L13.4082 157.327" stroke="#666666"/>
<path d="M106.307 69.0069L18.3242 157.327" stroke="#666666"/>
<path d="M111.223 69.0069L23.2402 157.327" stroke="#666666"/>
<path d="M116.137 69.0069L28.1543 157.327" stroke="#666666"/>
<path d="M121.055 69.0069L33.0723 157.327" stroke="#666666"/>
<path d="M125.969 69.0069L37.9863 157.327" stroke="#666666"/>
<path d="M130.885 69.0069L42.9023 157.327" stroke="#666666"/>
<path d="M135.801 69.0069L47.8184 157.327" stroke="#666666"/>
<path d="M140.715 69.0069L52.7324 157.327" stroke="#666666"/>
<path d="M145.633 69.0069L57.6504 157.327" stroke="#666666"/>
<path d="M150.547 69.0069L62.5645 157.327" stroke="#666666"/>
<path d="M155.463 69.0069L67.4805 157.327" stroke="#666666"/>
<path d="M160.379 69.0069L72.3965 157.327" stroke="#666666"/>
<path d="M165.295 69.0069L77.3125 157.327" stroke="#666666"/>
<path d="M170.211 69.0069L82.2285 157.327" stroke="#666666"/>
<path d="M175.125 69.0069L87.1426 157.327" stroke="#666666"/>
<path d="M180.041 69.0069L92.0586 157.327" stroke="#666666"/>
<path d="M184.957 69.0069L96.9746 157.327" stroke="#666666"/>
<path d="M189.873 69.0069L101.891 157.327" stroke="#666666"/>
<path d="M194.789 69.0069L106.807 157.327" stroke="#666666"/>
<path d="M199.703 69.0069L111.721 157.327" stroke="#666666"/>
<path d="M204.619 69.0069L116.637 157.327" stroke="#666666"/>
<path d="M209.535 69.0069L121.553 157.327" stroke="#666666"/>
<path d="M214.451 69.0069L126.469 157.327" stroke="#666666"/>
<path d="M219.367 69.0069L131.385 157.327" stroke="#666666"/>
<path d="M224.282 69.0069L136.299 157.327" stroke="#666666"/>
<path d="M229.198 69.0069L141.215 157.327" stroke="#666666"/>
<path d="M234.114 69.0069L146.131 157.327" stroke="#666666"/>
<path d="M239.03 69.0069L151.047 157.327" stroke="#666666"/>
<path d="M243.946 69.0069L155.963 157.327" stroke="#666666"/>
<path d="M248.86 69.0069L160.877 157.327" stroke="#666666"/>
<path d="M253.776 69.0069L165.793 157.327" stroke="#666666"/>
<path d="M258.692 69.0069L170.709 157.327" stroke="#666666"/>
<path d="M263.608 69.0069L175.625 157.327" stroke="#666666"/>
<path d="M268.524 69.0069L180.541 157.327" stroke="#666666"/>
<path d="M273.438 69.0069L185.455 157.327" stroke="#666666"/>
<path d="M278.354 69.0069L190.371 157.327" stroke="#666666"/>
<path d="M283.272 69.0069L195.289 157.327" stroke="#666666"/>
<path d="M288.186 69.0069L200.203 157.327" stroke="#666666"/>
<path d="M293.102 69.0069L205.119 157.327" stroke="#666666"/>
<path d="M298.016 69.0069L210.033 157.327" stroke="#666666"/>
<path d="M302.932 69.0069L214.949 157.327" stroke="#666666"/>
<path d="M307.85 69.0069L219.867 157.327" stroke="#666666"/>
<path d="M312.764 69.0069L224.781 157.327" stroke="#666666"/>
<path d="M317.68 69.0069L229.697 157.327" stroke="#666666"/>
<path d="M110.423 110.254V97.051H120.249V110.254V110.754H120.749H228.474C230.955 110.754 232.97 112.774 232.97 115.27V130.085C232.97 132.58 230.955 134.6 228.474 134.6H103.368C100.886 134.6 98.8711 132.58 98.8711 130.085V115.27C98.8711 112.774 100.886 110.754 103.368 110.754H109.923H110.423V110.254Z" stroke="black"/>
</g>
<rect x="43.8027" y="33.9377" width="189.697" height="65.0391" rx="5.5" fill="#CCCCCC" stroke="black"/>
<mask id="mask1_352_2234" style="mask-type:alpha" maskUnits="userSpaceOnUse" x="43" y="33" width="191" height="67">
<rect x="44.0527" y="34.1877" width="189.197" height="64.5391" rx="5.25" fill="#CCCCCC" stroke="black" stroke-width="1.5"/>
</mask>
<g mask="url(#mask1_352_2234)">
<path d="M49.7 10.1987L-50.3574 110.64" stroke="#666666"/>
<path d="M55.2899 10.1987L-44.7676 110.64" stroke="#666666"/>
<path d="M60.8797 10.1987L-39.1777 110.64" stroke="#666666"/>
<path d="M66.4715 10.1987L-33.5859 110.64" stroke="#666666"/>
<path d="M72.0613 10.1987L-27.9961 110.64" stroke="#666666"/>
<path d="M77.6512 10.1987L-22.4062 110.64" stroke="#666666"/>
<path d="M83.243 10.1987L-16.8145 110.64" stroke="#666666"/>
<path d="M88.8328 10.1987L-11.2246 110.64" stroke="#666666"/>
<path d="M94.4227 10.1987L-5.63477 110.64" stroke="#666666"/>
<path d="M100.013 10.1987L-0.0449219 110.64" stroke="#666666"/>
<path d="M105.602 10.1987L5.54492 110.64" stroke="#666666"/>
<path d="M111.194 10.1987L11.1367 110.64" stroke="#666666"/>
<path d="M116.784 10.1987L16.7266 110.64" stroke="#666666"/>
<path d="M122.374 10.1987L22.3164 110.64" stroke="#666666"/>
<path d="M127.964 10.1987L27.9062 110.64" stroke="#666666"/>
<path d="M133.554 10.1987L33.4961 110.64" stroke="#666666"/>
<path d="M139.143 10.1987L39.0859 110.64" stroke="#666666"/>
<path d="M144.733 10.1987L44.6758 110.64" stroke="#666666"/>
<path d="M150.323 10.1987L50.2656 110.64" stroke="#666666"/>
<path d="M155.915 10.1987L55.8574 110.64" stroke="#666666"/>
<path d="M161.505 10.1987L61.4473 110.64" stroke="#666666"/>
<path d="M167.095 10.1987L67.0371 110.64" stroke="#666666"/>
<path d="M172.686 10.1987L72.6289 110.64" stroke="#666666"/>
<path d="M178.276 10.1987L78.2188 110.64" stroke="#666666"/>
<path d="M183.866 10.1987L83.8086 110.64" stroke="#666666"/>
<path d="M189.456 10.1987L89.3984 110.64" stroke="#666666"/>
<path d="M195.048 10.1987L94.9902 110.64" stroke="#666666"/>
<path d="M200.638 10.1987L100.58 110.64" stroke="#666666"/>
<path d="M206.227 10.1987L106.17 110.64" stroke="#666666"/>
<path d="M211.819 10.1987L111.762 110.64" stroke="#666666"/>
<path d="M217.409 10.1987L117.352 110.64" stroke="#666666"/>
<path d="M222.999 10.1987L122.941 110.64" stroke="#666666"/>
<path d="M228.589 10.1987L128.531 110.64" stroke="#666666"/>
<path d="M234.179 10.1987L134.121 110.64" stroke="#666666"/>
<path d="M239.77 10.1987L139.713 110.64" stroke="#666666"/>
<path d="M245.36 10.1987L145.303 110.64" stroke="#666666"/>
<path d="M250.95 10.1987L150.893 110.64" stroke="#666666"/>
<path d="M256.542 10.1987L156.484 110.64" stroke="#666666"/>
<path d="M262.13 10.1987L162.072 110.64" stroke="#666666"/>
<path d="M267.72 10.1987L167.662 110.64" stroke="#666666"/>
<path d="M273.309 10.1987L173.252 110.64" stroke="#666666"/>
<path d="M278.899 10.1987L178.842 110.64" stroke="#666666"/>
<path d="M284.491 10.1987L184.434 110.64" stroke="#666666"/>
<path d="M290.081 10.1987L190.023 110.64" stroke="#666666"/>
<path d="M295.671 10.1987L195.613 110.64" stroke="#666666"/>
<path d="M301.261 10.1987L201.203 110.64" stroke="#666666"/>
<path d="M306.85 10.1987L206.793 110.64" stroke="#666666"/>
<path d="M312.442 10.1987L212.385 110.64" stroke="#666666"/>
<path d="M318.032 10.1987L217.975 110.64" stroke="#666666"/>
<path d="M323.622 10.1987L223.564 110.64" stroke="#666666"/>
<path d="M329.214 10.1987L229.156 110.64" stroke="#666666"/>
<rect x="43.8027" y="33.9377" width="189.697" height="65.0391" rx="5.5" stroke="black"/>
</g>
<rect x="0.5" y="66.5394" width="189.697" height="32.4375" rx="5.5" fill="#CCCCCC" stroke="black"/>
<mask id="mask2_352_2234" style="mask-type:alpha" maskUnits="userSpaceOnUse" x="0" y="66" width="191" height="34">
<rect x="0.75" y="66.7894" width="189.197" height="31.9375" rx="5.25" fill="#CCCCCC" stroke="black" stroke-width="1.5"/>
</mask>
<g mask="url(#mask2_352_2234)">
<path d="M3.71954 -0.964722L-96.3379 99.4769" stroke="#666666"/>
<path d="M9.30938 -0.964722L-90.748 99.4769" stroke="#666666"/>
<path d="M14.9012 -0.964722L-85.1562 99.4769" stroke="#666666"/>
<path d="M20.491 -0.964722L-79.5664 99.4769" stroke="#666666"/>
<path d="M26.0809 -0.964722L-73.9766 99.4769" stroke="#666666"/>
<path d="M31.6707 -0.964722L-68.3867 99.4769" stroke="#666666"/>
<path d="M37.2625 -0.964722L-62.7949 99.4769" stroke="#666666"/>
<path d="M42.8524 -0.964722L-57.2051 99.4769" stroke="#666666"/>
<path d="M48.4422 -0.964722L-51.6152 99.4769" stroke="#666666"/>
<path d="M54.034 -0.964722L-46.0234 99.4769" stroke="#666666"/>
<path d="M59.6219 -0.964722L-40.4355 99.4769" stroke="#666666"/>
<path d="M65.2137 -0.964722L-34.8438 99.4769" stroke="#666666"/>
<path d="M70.8035 -0.964722L-29.2539 99.4769" stroke="#666666"/>
<path d="M76.3934 -0.964722L-23.6641 99.4769" stroke="#666666"/>
<path d="M81.9852 -0.964722L-18.0723 99.4769" stroke="#666666"/>
<path d="M87.575 -0.964722L-12.4824 99.4769" stroke="#666666"/>
<path d="M93.1649 -0.964722L-6.89258 99.4769" stroke="#666666"/>
<path d="M98.7547 -0.964722L-1.30273 99.4769" stroke="#666666"/>
<path d="M104.343 -0.964722L4.28516 99.4769" stroke="#666666"/>
<path d="M109.934 -0.964722L9.87695 99.4769" stroke="#666666"/>
<path d="M115.524 -0.964722L15.4668 99.4769" stroke="#666666"/>
<path d="M121.114 -0.964722L21.0566 99.4769" stroke="#666666"/>
<path d="M126.706 -0.964722L26.6484 99.4769" stroke="#666666"/>
<path d="M132.296 -0.964722L32.2383 99.4769" stroke="#666666"/>
<path d="M137.886 -0.964722L37.8281 99.4769" stroke="#666666"/>
<path d="M143.475 -0.964722L43.418 99.4769" stroke="#666666"/>
<path d="M149.065 -0.964722L49.0078 99.4769" stroke="#666666"/>
<path d="M154.657 -0.964722L54.5996 99.4769" stroke="#666666"/>
<path d="M160.247 -0.964722L60.1895 99.4769" stroke="#666666"/>
<path d="M165.837 -0.964722L65.7793 99.4769" stroke="#666666"/>
<path d="M171.429 -0.964722L71.3711 99.4769" stroke="#666666"/>
<path d="M177.018 -0.964722L76.9609 99.4769" stroke="#666666"/>
<path d="M182.608 -0.964722L82.5508 99.4769" stroke="#666666"/>
<path d="M188.198 -0.964722L88.1406 99.4769" stroke="#666666"/>
<rect x="0.5" y="66.5394" width="189.697" height="32.4375" rx="5.5" stroke="black"/>
</g>
<path d="M14.3281 0.500244H208.015C211.053 0.500244 213.515 2.96268 213.515 6.00024V98.9768H8.82812V6.00025C8.82812 2.96268 11.2906 0.500244 14.3281 0.500244Z" fill="#CCCCCC" stroke="black"/>
<mask id="mask3_352_2234" style="mask-type:alpha" maskUnits="userSpaceOnUse" x="8" y="0" width="207" height="100">
<path d="M14.3281 0.750244H208.015C210.914 0.750244 213.265 3.10075 213.265 6.00024V98.7268H9.07812V6.00025C9.07812 3.10075 11.4286 0.750244 14.3281 0.750244Z" fill="#CCCCCC" stroke="black" stroke-width="1.5"/>
</mask>
<g mask="url(#mask3_352_2234)">
<path d="M9.31133 -0.964844L-90.7461 99.4767" stroke="#666666"/>
<path d="M14.9031 -0.964844L-85.1543 99.4767" stroke="#666666"/>
<path d="M20.493 -0.964844L-79.5645 99.4767" stroke="#666666"/>
<path d="M26.0828 -0.964844L-73.9746 99.4767" stroke="#666666"/>
<path d="M31.6727 -0.964844L-68.3848 99.4767" stroke="#666666"/>
<path d="M37.2645 -0.964844L-62.793 99.4767" stroke="#666666"/>
<path d="M42.8543 -0.964844L-57.2031 99.4767" stroke="#666666"/>
<path d="M48.4441 -0.964844L-51.6133 99.4767" stroke="#666666"/>
<path d="M54.0359 -0.964844L-46.0215 99.4767" stroke="#666666"/>
<path d="M59.6258 -0.964844L-40.4316 99.4767" stroke="#666666"/>
<path d="M65.2156 -0.964844L-34.8418 99.4767" stroke="#666666"/>
<path d="M70.8055 -0.964844L-29.252 99.4767" stroke="#666666"/>
<path d="M76.3953 -0.964844L-23.6621 99.4767" stroke="#666666"/>
<path d="M81.9871 -0.964844L-18.0703 99.4767" stroke="#666666"/>
<path d="M87.577 -0.964844L-12.4805 99.4767" stroke="#666666"/>
<path d="M93.1668 -0.964844L-6.89062 99.4767" stroke="#666666"/>
<path d="M98.7566 -0.964844L-1.30078 99.4767" stroke="#666666"/>
<path d="M104.345 -0.964844L4.28711 99.4767" stroke="#666666"/>
<path d="M109.936 -0.964844L9.87891 99.4767" stroke="#666666"/>
<path d="M115.526 -0.964844L15.4688 99.4767" stroke="#666666"/>
<path d="M121.116 -0.964844L21.0586 99.4767" stroke="#666666"/>
<path d="M126.708 -0.964844L26.6504 99.4767" stroke="#666666"/>
<path d="M132.298 -0.964844L32.2402 99.4767" stroke="#666666"/>
<path d="M137.888 -0.964844L37.8301 99.4767" stroke="#666666"/>
<path d="M143.477 -0.964844L43.4199 99.4767" stroke="#666666"/>
<path d="M149.067 -0.964844L49.0098 99.4767" stroke="#666666"/>
<path d="M154.659 -0.964844L54.6016 99.4767" stroke="#666666"/>
<path d="M160.249 -0.964844L60.1914 99.4767" stroke="#666666"/>
<path d="M165.839 -0.964844L65.7812 99.4767" stroke="#666666"/>
<path d="M171.43 -0.964844L71.373 99.4767" stroke="#666666"/>
<path d="M177.02 -0.964844L76.9629 99.4767" stroke="#666666"/>
<path d="M182.61 -0.964844L82.5527 99.4767" stroke="#666666"/>
<path d="M188.2 -0.964844L88.1426 99.4767" stroke="#666666"/>
<path d="M14.3281 0.500244H208.015C211.053 0.500244 213.515 2.96268 213.515 6.00024V98.9768H8.82812V6.00025C8.82812 2.96268 11.2906 0.500244 14.3281 0.500244Z" stroke="black"/>
</g>
<path d="M28.8145 0.500244H219.674C222.711 0.500244 225.174 2.96268 225.174 6.00024V93.4768C225.174 96.5144 222.711 98.9768 219.674 98.9768H28.8145V0.500244Z" fill="white" stroke="black"/>
<path d="M224.84 66.0394L206.52 66.0394M224.84 73.5628L206.52 73.5628M224.84 77.3245L206.52 77.3245M224.84 81.0862L206.52 81.0862M224.84 84.848L206.52 84.848M224.84 88.6097L206.52 88.6097M224.84 69.8011L206.52 69.8011" stroke="black"/>
<path d="M215.678 57.3136V33.8557H187.782V67.2932H184.451V30.094H199.856V14.2112H204.436V0.836182M206.102 65.6213V98.2229M186.949 98.6409V93.6252H203.604V98.6409M167.379 98.6409V93.6252H184.034V98.6409M146.977 98.6409V93.6252H163.632V98.6409M127.824 98.6409V93.6252H144.479V98.6409M107.422 98.6409V93.6252H124.077V98.6409M88.2691 98.6409V93.6252H104.924V98.6409M67.867 98.6409V93.6252H84.5218V98.6409M48.7139 98.6409V93.6252H65.3687V98.6409M29.1445 98.6409V93.6252H45.7993V98.6409M215.678 65.6213V89.0792" stroke="black"/>
<path d="M45.7985 -1.39217e-05L45.7985 5.01561L29.1437 5.01561L29.1437 -1.53833e-05M66.2007 -1.21313e-05L66.2007 5.01561L49.5459 5.01561L49.5459 -1.35929e-05M85.3537 -1.04504e-05L85.3537 5.01561L68.6989 5.01561L68.6989 -1.1912e-05M105.756 -8.65998e-06L105.756 5.01562L89.101 5.01561L89.101 -1.01216e-05M124.909 -6.97914e-06L124.909 5.01562L108.254 5.01562L108.254 -8.44074e-06M145.311 -5.18868e-06L145.311 5.01562L128.656 5.01562L128.656 -6.65028e-06M164.464 -3.50784e-06L164.464 5.01562L147.809 5.01562L147.809 -4.96944e-06M184.033 -1.79046e-06L184.033 5.01562L167.379 5.01562L167.379 -3.25206e-06M204.436 0L204.436 5.01562L187.781 5.01562L187.781 -1.4616e-06" stroke="black"/>
<path d="M29.1461 67.0891L34.1426 67.0891L34.1426 81.0862L29.1461 81.0862M29.1461 50.9924L34.1426 50.9924L34.1426 64.9895L29.1461 64.9895" stroke="black"/>
<path d="M29.1461 34.4875L34.1426 34.4875L34.1426 48.4846L29.1461 48.4846M29.1461 18.3909L34.1426 18.3909L34.1426 32.388L29.1461 32.388" stroke="black"/>
<path d="M66.1354 66.0394L66.1354 71.055L54.1284 71.055L54.1284 66.0394M79.9434 66.0394L79.9434 71.055L67.9364 71.055L67.9364 66.0394" stroke="black"/>
<path d="M49.1309 68.5471L49.1309 79.4142L45.7999 79.4142L45.7999 68.5471" stroke="black"/>
<path d="M164.049 31.7659L164.049 19.2268L167.38 19.2268L167.38 31.7659" stroke="black"/>
<path d="M88.2695 68.5471L88.2695 79.4142L84.9386 79.4142L84.9386 68.5471" stroke="black"/>
<path d="M124.91 31.7659L124.91 19.2268L128.241 19.2268L128.241 31.7659" stroke="black"/>
<path d="M144.479 93.6253L144.479 81.0862L146.977 81.0862L146.977 93.6253" stroke="black"/>
<path d="M68.7012 5.01562L68.7012 17.5547L66.203 17.5547L66.203 5.01562" stroke="black"/>
<path d="M104.926 93.6253L104.926 81.0862L107.424 81.0862L107.424 93.6253" stroke="black"/>
<path d="M108.256 5.01562L108.256 17.5547L105.758 17.5547L105.758 5.01562" stroke="black"/>
<path d="M65.3691 93.6253L65.3691 81.0862L67.8674 81.0862L67.8674 93.6253" stroke="black"/>
<path d="M147.811 5.01563L147.811 17.5547L145.312 17.5547L145.312 5.01563" stroke="black"/>
<path d="M127.41 68.5471L127.41 79.4142L124.079 79.4142L124.079 68.5471" stroke="black"/>
<path d="M85.7715 31.7659L85.7715 19.2268L89.1024 19.2268L89.1024 31.7659" stroke="black"/>
<path d="M167.381 68.5471L167.381 79.4142L164.05 79.4142L164.05 68.5471" stroke="black"/>
<path d="M45.7988 31.7659L45.7988 19.2268L49.1298 19.2268L49.1298 31.7659" stroke="black"/>
<path d="M147.044 33.4377L147.044 28.4221L159.051 28.4221L159.051 33.4377M133.236 33.4377L133.236 28.4221L145.243 28.4221L145.243 33.4377" stroke="black"/>
<path d="M106.106 66.0394L106.106 71.055L94.0991 71.055L94.0991 66.0394M119.914 66.0394L119.914 71.055L107.907 71.055L107.907 66.0394" stroke="black"/>
<path d="M107.074 33.4377L107.074 28.4221L119.081 28.4221L119.081 33.4377M93.2656 33.4377L93.2656 28.4221L105.273 28.4221L105.273 33.4377" stroke="black"/>
<path d="M145.245 66.0394L145.245 71.055L133.238 71.055L133.238 66.0394M159.053 66.0394L159.053 71.055L147.046 71.055L147.046 66.0394" stroke="black"/>
<path d="M67.9349 33.4377L67.9349 28.4221L79.9419 28.4221L79.9419 33.4377M54.127 33.4377L54.127 28.4221L66.1339 28.4221L66.1339 33.4377" stroke="black"/>
<path d="M199.941 30.094H204.438V14.2112V0.836182H220.102C222.863 0.836182 225.102 3.07476 225.102 5.83618V57.1254H215.68V33.8557H199.941V30.094Z" fill="#CCCCCC"/>
<path d="M206.104 65.6213V98.2229M186.951 98.6409V93.6252H203.606V98.6409M167.381 98.6409V93.6252H184.036V98.6409M146.979 98.6409V93.6252H163.634V98.6409M127.826 98.6409V93.6252H144.481V98.6409M107.424 98.6409V93.6252H124.079V98.6409M88.271 98.6409V93.6252H104.926V98.6409M67.8689 98.6409V93.6252H84.5237V98.6409M48.7159 98.6409V93.6252H65.3707V98.6409M29.1465 98.6409V93.6252H45.8013V98.6409M204.438 14.2112V0.836182H220.102C222.863 0.836182 225.102 3.07476 225.102 5.83618V57.1254H215.68V33.8557H199.941V30.094H204.438V14.2112Z" stroke="black"/>
<mask id="mask4_352_2234" style="mask-type:alpha" maskUnits="userSpaceOnUse" x="28" y="0" width="198" height="99">
<path d="M199.941 30.094H204.438V14.2112V0.836182H220.102C222.863 0.836182 225.102 3.07476 225.102 5.83618V57.1254H215.68V33.8557H199.941V30.094Z" fill="#CCCCCC"/>
<path d="M206.104 65.6213V98.2229M186.951 98.6409V93.6252H203.606V98.6409M167.381 98.6409V93.6252H184.036V98.6409M146.979 98.6409V93.6252H163.634V98.6409M127.826 98.6409V93.6252H144.481V98.6409M107.424 98.6409V93.6252H124.079V98.6409M88.271 98.6409V93.6252H104.926V98.6409M67.8689 98.6409V93.6252H84.5237V98.6409M48.7159 98.6409V93.6252H65.3707V98.6409M29.1465 98.6409V93.6252H45.8013V98.6409M204.438 14.2112V0.836182H220.102C222.863 0.836182 225.102 3.07476 225.102 5.83618V57.1254H215.68V33.8557H199.941V30.094H204.438V14.2112Z" stroke="black"/>
</mask>
<g mask="url(#mask4_352_2234)">
<path d="M56.1121 -9.573L-43.9453 90.8686" stroke="#666666"/>
<path d="M61.702 -9.573L-38.3555 90.8686" stroke="#666666"/>
<path d="M67.2918 -9.573L-32.7656 90.8686" stroke="#666666"/>
<path d="M72.8836 -9.573L-27.1738 90.8686" stroke="#666666"/>
<path d="M78.4734 -9.573L-21.584 90.8686" stroke="#666666"/>
<path d="M84.0633 -9.573L-15.9941 90.8686" stroke="#666666"/>
<path d="M89.6551 -9.573L-10.4023 90.8686" stroke="#666666"/>
<path d="M95.2449 -9.573L-4.8125 90.8686" stroke="#666666"/>
<path d="M100.835 -9.573L0.777344 90.8686" stroke="#666666"/>
<path d="M106.425 -9.573L6.36719 90.8686" stroke="#666666"/>
<path d="M112.014 -9.573L11.957 90.8686" stroke="#666666"/>
<path d="M117.606 -9.573L17.5488 90.8686" stroke="#666666"/>
<path d="M123.196 -9.573L23.1387 90.8686" stroke="#666666"/>
<path d="M128.786 -9.573L28.7285 90.8686" stroke="#666666"/>
<path d="M134.376 -9.573L34.3184 90.8686" stroke="#666666"/>
<path d="M139.966 -9.573L39.9082 90.8686" stroke="#666666"/>
<path d="M145.555 -9.573L45.498 90.8686" stroke="#666666"/>
<path d="M151.145 -9.573L51.0879 90.8686" stroke="#666666"/>
<path d="M156.735 -9.573L56.6777 90.8686" stroke="#666666"/>
<path d="M162.327 -9.573L62.2695 90.8686" stroke="#666666"/>
<path d="M167.917 -9.573L67.8594 90.8686" stroke="#666666"/>
<path d="M173.507 -9.573L73.4492 90.8686" stroke="#666666"/>
<path d="M179.098 -9.573L79.041 90.8686" stroke="#666666"/>
<path d="M184.688 -9.573L84.6309 90.8686" stroke="#666666"/>
<path d="M190.278 -9.573L90.2207 90.8686" stroke="#666666"/>
<path d="M195.868 -9.573L95.8105 90.8686" stroke="#666666"/>
<path d="M201.46 -9.573L101.402 90.8686" stroke="#666666"/>
<path d="M207.05 -9.573L106.992 90.8686" stroke="#666666"/>
<path d="M212.639 -9.573L112.582 90.8686" stroke="#666666"/>
<path d="M218.231 -9.573L118.174 90.8686" stroke="#666666"/>
<path d="M223.821 -9.573L123.764 90.8686" stroke="#666666"/>
<path d="M229.411 -9.573L129.354 90.8686" stroke="#666666"/>
<path d="M235.001 -9.573L134.943 90.8686" stroke="#666666"/>
<path d="M240.591 -9.573L140.533 90.8686" stroke="#666666"/>
<path d="M246.182 -9.573L146.125 90.8686" stroke="#666666"/>
<path d="M251.772 -9.573L151.715 90.8686" stroke="#666666"/>
<path d="M257.362 -9.573L157.305 90.8686" stroke="#666666"/>
<path d="M262.954 -9.573L162.896 90.8686" stroke="#666666"/>
<path d="M268.542 -9.573L168.484 90.8686" stroke="#666666"/>
<path d="M274.134 -9.573L174.076 90.8686" stroke="#666666"/>
<path d="M279.721 -9.573L179.664 90.8686" stroke="#666666"/>
<path d="M285.311 -9.573L185.254 90.8686" stroke="#666666"/>
<path d="M290.903 -9.573L190.846 90.8686" stroke="#666666"/>
<path d="M296.493 -9.573L196.436 90.8686" stroke="#666666"/>
<path d="M302.083 -9.573L202.025 90.8686" stroke="#666666"/>
<path d="M307.673 -9.573L207.615 90.8686" stroke="#666666"/>
<path d="M313.263 -9.573L213.205 90.8686" stroke="#666666"/>
<path d="M318.854 -9.573L218.797 90.8686" stroke="#666666"/>
<path d="M324.444 -9.573L224.387 90.8686" stroke="#666666"/>
<path d="M206.104 65.6213V98.2229M186.951 98.6409V93.6252H203.606V98.6409M167.381 98.6409V93.6252H184.036V98.6409M146.979 98.6409V93.6252H163.634V98.6409M127.826 98.6409V93.6252H144.481V98.6409M107.424 98.6409V93.6252H124.079V98.6409M88.271 98.6409V93.6252H104.926V98.6409M67.8689 98.6409V93.6252H84.5237V98.6409M48.7159 98.6409V93.6252H65.3707V98.6409M29.1465 98.6409V93.6252H45.8013V98.6409M204.438 14.2112V0.836182H220.102C222.863 0.836182 225.102 3.07476 225.102 5.83618V57.1254H215.68V33.8557H199.941V30.094H204.438V14.2112Z" stroke="black"/>
</g>
<mask id="path-259-inside-1_352_2234" fill="white">
<path fill-rule="evenodd" clip-rule="evenodd" d="M48.7989 35.667C48.3907 35.8462 47.9398 35.9456 47.4657 35.9456C45.6261 35.9456 44.1348 34.4485 44.1348 32.6018C44.1348 30.7551 45.6261 29.2581 47.4657 29.2581C49.3054 29.2581 50.7967 30.7551 50.7967 32.6018C50.7967 33.2337 50.6221 33.8246 50.3187 34.3286C51.2337 33.7637 52.3119 33.4377 53.4662 33.4377H83.3777C83.3092 33.1706 83.2727 32.8905 83.2727 32.6018C83.2727 30.7551 84.764 29.2581 86.6037 29.2581C88.4433 29.2581 89.9346 30.7551 89.9346 32.6018C89.9346 32.8905 89.8982 33.1706 89.8297 33.4377H122.518C122.449 33.1706 122.413 32.8905 122.413 32.6018C122.413 30.7551 123.904 29.2581 125.744 29.2581C127.583 29.2581 129.075 30.7551 129.075 32.6018C129.075 32.8905 129.038 33.1706 128.97 33.4377H158.883C162.196 33.4377 164.883 36.124 164.883 39.4377V60.0393C164.883 63.353 162.196 66.0393 158.883 66.0393H128.97C129.038 66.3065 129.075 66.5866 129.075 66.8753C129.075 68.722 127.583 70.2191 125.744 70.2191C123.904 70.2191 122.413 68.722 122.413 66.8753C122.413 66.5866 122.449 66.3065 122.518 66.0393H89.8297C89.8982 66.3065 89.9346 66.5866 89.9346 66.8753C89.9346 68.722 88.4433 70.2191 86.6037 70.2191C84.764 70.2191 83.2727 68.722 83.2727 66.8753C83.2727 66.5866 83.3092 66.3065 83.3777 66.0393H53.4662C52.3119 66.0393 51.2337 65.7133 50.3187 65.1484C50.6221 65.6525 50.7967 66.2434 50.7967 66.8753C50.7967 68.722 49.3054 70.219 47.4657 70.219C45.6261 70.219 44.1348 68.722 44.1348 66.8753C44.1348 65.0286 45.6261 63.5315 47.4657 63.5315C47.9398 63.5315 48.3907 63.6309 48.7989 63.8101C47.9654 62.7798 47.4662 61.4678 47.4662 60.0393V39.4377C47.4662 38.0093 47.9654 36.6974 48.7989 35.667ZM165.715 35.9456C167.555 35.9456 169.046 34.4485 169.046 32.6018C169.046 30.7551 167.555 29.2581 165.715 29.2581C163.876 29.2581 162.384 30.7551 162.384 32.6018C162.384 34.4485 163.876 35.9456 165.715 35.9456ZM169.046 66.8753C169.046 68.722 167.555 70.2191 165.715 70.2191C163.876 70.2191 162.384 68.722 162.384 66.8753C162.384 65.0286 163.876 63.5316 165.715 63.5316C167.555 63.5316 169.046 65.0286 169.046 66.8753ZM184.868 35.9456C186.707 35.9456 188.199 34.4485 188.199 32.6018C188.199 30.7551 186.707 29.2581 184.868 29.2581C183.028 29.2581 181.537 30.7551 181.537 32.6018C181.537 34.4485 183.028 35.9456 184.868 35.9456ZM188.199 66.8753C188.199 68.722 186.707 70.2191 184.868 70.2191C183.028 70.2191 181.537 68.722 181.537 66.8753C181.537 65.0286 183.028 63.5316 184.868 63.5316C186.707 63.5316 188.199 65.0286 188.199 66.8753Z"/>
</mask>
<path fill-rule="evenodd" clip-rule="evenodd" d="M48.7989 35.667C48.3907 35.8462 47.9398 35.9456 47.4657 35.9456C45.6261 35.9456 44.1348 34.4485 44.1348 32.6018C44.1348 30.7551 45.6261 29.2581 47.4657 29.2581C49.3054 29.2581 50.7967 30.7551 50.7967 32.6018C50.7967 33.2337 50.6221 33.8246 50.3187 34.3286C51.2337 33.7637 52.3119 33.4377 53.4662 33.4377H83.3777C83.3092 33.1706 83.2727 32.8905 83.2727 32.6018C83.2727 30.7551 84.764 29.2581 86.6037 29.2581C88.4433 29.2581 89.9346 30.7551 89.9346 32.6018C89.9346 32.8905 89.8982 33.1706 89.8297 33.4377H122.518C122.449 33.1706 122.413 32.8905 122.413 32.6018C122.413 30.7551 123.904 29.2581 125.744 29.2581C127.583 29.2581 129.075 30.7551 129.075 32.6018C129.075 32.8905 129.038 33.1706 128.97 33.4377H158.883C162.196 33.4377 164.883 36.124 164.883 39.4377V60.0393C164.883 63.353 162.196 66.0393 158.883 66.0393H128.97C129.038 66.3065 129.075 66.5866 129.075 66.8753C129.075 68.722 127.583 70.2191 125.744 70.2191C123.904 70.2191 122.413 68.722 122.413 66.8753C122.413 66.5866 122.449 66.3065 122.518 66.0393H89.8297C89.8982 66.3065 89.9346 66.5866 89.9346 66.8753C89.9346 68.722 88.4433 70.2191 86.6037 70.2191C84.764 70.2191 83.2727 68.722 83.2727 66.8753C83.2727 66.5866 83.3092 66.3065 83.3777 66.0393H53.4662C52.3119 66.0393 51.2337 65.7133 50.3187 65.1484C50.6221 65.6525 50.7967 66.2434 50.7967 66.8753C50.7967 68.722 49.3054 70.219 47.4657 70.219C45.6261 70.219 44.1348 68.722 44.1348 66.8753C44.1348 65.0286 45.6261 63.5315 47.4657 63.5315C47.9398 63.5315 48.3907 63.6309 48.7989 63.8101C47.9654 62.7798 47.4662 61.4678 47.4662 60.0393V39.4377C47.4662 38.0093 47.9654 36.6974 48.7989 35.667ZM165.715 35.9456C167.555 35.9456 169.046 34.4485 169.046 32.6018C169.046 30.7551 167.555 29.2581 165.715 29.2581C163.876 29.2581 162.384 30.7551 162.384 32.6018C162.384 34.4485 163.876 35.9456 165.715 35.9456ZM169.046 66.8753C169.046 68.722 167.555 70.2191 165.715 70.2191C163.876 70.2191 162.384 68.722 162.384 66.8753C162.384 65.0286 163.876 63.5316 165.715 63.5316C167.555 63.5316 169.046 65.0286 169.046 66.8753ZM184.868 35.9456C186.707 35.9456 188.199 34.4485 188.199 32.6018C188.199 30.7551 186.707 29.2581 184.868 29.2581C183.028 29.2581 181.537 30.7551 181.537 32.6018C181.537 34.4485 183.028 35.9456 184.868 35.9456ZM188.199 66.8753C188.199 68.722 186.707 70.2191 184.868 70.2191C183.028 70.2191 181.537 68.722 181.537 66.8753C181.537 65.0286 183.028 63.5316 184.868 63.5316C186.707 63.5316 188.199 65.0286 188.199 66.8753Z" fill="#CCCCCC"/>
<path d="M48.7989 35.667L49.5764 36.2959L48.397 34.7513L48.7989 35.667ZM50.3187 34.3286L49.462 33.8129L50.844 35.1795L50.3187 34.3286ZM83.3777 33.4377V34.4377H84.6664L84.3463 33.1894L83.3777 33.4377ZM89.8297 33.4377L88.861 33.1894L88.541 34.4377H89.8297V33.4377ZM122.518 33.4377V34.4377H123.806L123.486 33.1894L122.518 33.4377ZM128.97 33.4377L128.001 33.1894L127.681 34.4377H128.97V33.4377ZM128.97 66.0393V65.0393H127.681L128.001 66.2877L128.97 66.0393ZM122.518 66.0393L123.486 66.2877L123.807 65.0393H122.518V66.0393ZM89.8297 66.0393V65.0393H88.5409L88.861 66.2877L89.8297 66.0393ZM83.3777 66.0393L84.3463 66.2877L84.6664 65.0393H83.3777V66.0393ZM50.3187 65.1484L50.844 64.2975L49.4619 65.6642L50.3187 65.1484ZM48.7989 63.8101L48.397 64.7258L49.5764 63.1812L48.7989 63.8101ZM47.4657 36.9456C48.0808 36.9456 48.6683 36.8164 49.2008 36.5827L48.397 34.7513C48.113 34.876 47.7987 34.9456 47.4657 34.9456V36.9456ZM43.1348 32.6018C43.1348 34.9972 45.0702 36.9456 47.4657 36.9456V34.9456C46.182 34.9456 45.1348 33.8998 45.1348 32.6018H43.1348ZM47.4657 28.2581C45.0702 28.2581 43.1348 30.2064 43.1348 32.6018H45.1348C45.1348 31.3038 46.182 30.2581 47.4657 30.2581V28.2581ZM51.7967 32.6018C51.7967 30.2064 49.8613 28.2581 47.4657 28.2581V30.2581C48.7495 30.2581 49.7967 31.3038 49.7967 32.6018H51.7967ZM51.1755 34.8443C51.5701 34.1888 51.7967 33.4202 51.7967 32.6018H49.7967C49.7967 33.0471 49.6742 33.4603 49.462 33.8129L51.1755 34.8443ZM50.844 35.1795C51.6057 34.7093 52.5027 34.4377 53.4662 34.4377V32.4377C52.1211 32.4377 50.8618 32.8181 49.7934 33.4777L50.844 35.1795ZM53.4662 34.4377H83.3777V32.4377H53.4662V34.4377ZM84.3463 33.1894C84.2985 33.0027 84.2727 32.806 84.2727 32.6018H82.2727C82.2727 32.9749 82.3198 33.3384 82.409 33.6861L84.3463 33.1894ZM84.2727 32.6018C84.2727 31.3038 85.3199 30.2581 86.6037 30.2581V28.2581C84.2081 28.2581 82.2727 30.2064 82.2727 32.6018H84.2727ZM86.6037 30.2581C87.8874 30.2581 88.9346 31.3038 88.9346 32.6018H90.9346C90.9346 30.2064 88.9992 28.2581 86.6037 28.2581V30.2581ZM88.9346 32.6018C88.9346 32.806 88.9089 33.0027 88.861 33.1894L90.7984 33.6861C90.8875 33.3384 90.9346 32.9749 90.9346 32.6018H88.9346ZM89.8297 34.4377H122.518V32.4377H89.8297V34.4377ZM123.486 33.1894C123.439 33.0027 123.413 32.806 123.413 32.6018H121.413C121.413 32.9749 121.46 33.3384 121.549 33.6861L123.486 33.1894ZM123.413 32.6018C123.413 31.3038 124.46 30.2581 125.744 30.2581V28.2581C123.348 28.2581 121.413 30.2064 121.413 32.6018H123.413ZM125.744 30.2581C127.028 30.2581 128.075 31.3038 128.075 32.6018H130.075C130.075 30.2064 128.139 28.2581 125.744 28.2581V30.2581ZM128.075 32.6018C128.075 32.806 128.049 33.0027 128.001 33.1894L129.938 33.6861C130.028 33.3384 130.075 32.9749 130.075 32.6018H128.075ZM128.97 34.4377H158.883V32.4377H128.97V34.4377ZM158.883 34.4377C161.644 34.4377 163.883 36.6763 163.883 39.4377H165.883C165.883 35.5717 162.749 32.4377 158.883 32.4377V34.4377ZM163.883 39.4377V60.0393H165.883V39.4377H163.883ZM163.883 60.0393C163.883 62.8007 161.644 65.0393 158.883 65.0393V67.0393C162.749 67.0393 165.883 63.9053 165.883 60.0393H163.883ZM158.883 65.0393H128.97V67.0393H158.883V65.0393ZM130.075 66.8753C130.075 66.5022 130.028 66.1386 129.938 65.7909L128.001 66.2877C128.049 66.4744 128.075 66.6711 128.075 66.8753H130.075ZM125.744 71.2191C128.139 71.2191 130.075 69.2707 130.075 66.8753H128.075C128.075 68.1733 127.028 69.2191 125.744 69.2191V71.2191ZM121.413 66.8753C121.413 69.2707 123.348 71.2191 125.744 71.2191V69.2191C124.46 69.2191 123.413 68.1733 123.413 66.8753H121.413ZM121.549 65.7909C121.46 66.1386 121.413 66.5022 121.413 66.8753H123.413C123.413 66.6711 123.439 66.4744 123.486 66.2877L121.549 65.7909ZM122.518 65.0393H89.8297V67.0393H122.518V65.0393ZM90.9346 66.8753C90.9346 66.5022 90.8875 66.1386 90.7983 65.7909L88.861 66.2877C88.9089 66.4744 88.9346 66.6711 88.9346 66.8753H90.9346ZM86.6037 71.2191C88.9992 71.2191 90.9346 69.2707 90.9346 66.8753H88.9346C88.9346 68.1733 87.8874 69.2191 86.6037 69.2191V71.2191ZM82.2727 66.8753C82.2727 69.2707 84.2081 71.2191 86.6037 71.2191V69.2191C85.3199 69.2191 84.2727 68.1733 84.2727 66.8753H82.2727ZM82.409 65.7909C82.3199 66.1386 82.2727 66.5022 82.2727 66.8753H84.2727C84.2727 66.6711 84.2985 66.4744 84.3463 66.2877L82.409 65.7909ZM83.3777 65.0393H53.4662V67.0393H83.3777V65.0393ZM53.4662 65.0393C52.5027 65.0393 51.6057 64.7678 50.844 64.2975L49.7934 65.9993C50.8617 66.6589 52.1211 67.0393 53.4662 67.0393V65.0393ZM51.7967 66.8753C51.7967 66.0568 51.57 65.2882 51.1754 64.6327L49.4619 65.6642C49.6741 66.0167 49.7967 66.43 49.7967 66.8753H51.7967ZM47.4657 71.219C49.8613 71.219 51.7967 69.2707 51.7967 66.8753H49.7967C49.7967 68.1733 48.7495 69.219 47.4657 69.219V71.219ZM43.1348 66.8753C43.1348 69.2707 45.0702 71.219 47.4657 71.219V69.219C46.182 69.219 45.1348 68.1733 45.1348 66.8753H43.1348ZM47.4657 62.5315C45.0702 62.5315 43.1348 64.4799 43.1348 66.8753H45.1348C45.1348 65.5773 46.182 64.5315 47.4657 64.5315V62.5315ZM49.2008 62.8944C48.6684 62.6607 48.0808 62.5315 47.4657 62.5315V64.5315C47.7987 64.5315 48.113 64.6011 48.397 64.7258L49.2008 62.8944ZM49.5764 63.1812C48.8816 62.3223 48.4662 61.2307 48.4662 60.0393H46.4662C46.4662 61.705 47.0492 63.2372 48.0215 64.4391L49.5764 63.1812ZM48.4662 60.0393V39.4377H46.4662V60.0393H48.4662ZM48.4662 39.4377C48.4662 38.2464 48.8816 37.1548 49.5764 36.2959L48.0214 35.0381C47.0492 36.2399 46.4662 37.7721 46.4662 39.4377H48.4662ZM168.046 32.6018C168.046 33.8998 166.999 34.9456 165.715 34.9456V36.9456C168.111 36.9456 170.046 34.9972 170.046 32.6018H168.046ZM165.715 30.2581C166.999 30.2581 168.046 31.3038 168.046 32.6018H170.046C170.046 30.2064 168.111 28.2581 165.715 28.2581V30.2581ZM163.384 32.6018C163.384 31.3038 164.432 30.2581 165.715 30.2581V28.2581C163.32 28.2581 161.384 30.2064 161.384 32.6018H163.384ZM165.715 34.9456C164.432 34.9456 163.384 33.8998 163.384 32.6018H161.384C161.384 34.9972 163.32 36.9456 165.715 36.9456V34.9456ZM165.715 71.2191C168.111 71.2191 170.046 69.2707 170.046 66.8753H168.046C168.046 68.1733 166.999 69.2191 165.715 69.2191V71.2191ZM161.384 66.8753C161.384 69.2707 163.32 71.2191 165.715 71.2191V69.2191C164.432 69.2191 163.384 68.1733 163.384 66.8753H161.384ZM165.715 62.5316C163.32 62.5316 161.384 64.4799 161.384 66.8753H163.384C163.384 65.5773 164.432 64.5316 165.715 64.5316V62.5316ZM170.046 66.8753C170.046 64.4799 168.111 62.5316 165.715 62.5316V64.5316C166.999 64.5316 168.046 65.5773 168.046 66.8753H170.046ZM187.199 32.6018C187.199 33.8998 186.151 34.9456 184.868 34.9456V36.9456C187.263 36.9456 189.199 34.9972 189.199 32.6018H187.199ZM184.868 30.2581C186.151 30.2581 187.199 31.3038 187.199 32.6018H189.199C189.199 30.2064 187.263 28.2581 184.868 28.2581V30.2581ZM182.537 32.6018C182.537 31.3038 183.584 30.2581 184.868 30.2581V28.2581C182.472 28.2581 180.537 30.2064 180.537 32.6018H182.537ZM184.868 34.9456C183.584 34.9456 182.537 33.8998 182.537 32.6018H180.537C180.537 34.9972 182.472 36.9456 184.868 36.9456V34.9456ZM184.868 71.2191C187.263 71.2191 189.199 69.2707 189.199 66.8753H187.199C187.199 68.1733 186.151 69.2191 184.868 69.2191V71.2191ZM180.537 66.8753C180.537 69.2707 182.472 71.2191 184.868 71.2191V69.2191C183.584 69.2191 182.537 68.1733 182.537 66.8753H180.537ZM184.868 62.5316C182.472 62.5316 180.537 64.4799 180.537 66.8753H182.537C182.537 65.5773 183.584 64.5316 184.868 64.5316V62.5316ZM189.199 66.8753C189.199 64.4799 187.263 62.5316 184.868 62.5316V64.5316C186.151 64.5316 187.199 65.5773 187.199 66.8753H189.199Z" fill="black" mask="url(#path-259-inside-1_352_2234)"/>
<mask id="mask5_352_2234" style="mask-type:alpha" maskUnits="userSpaceOnUse" x="44" y="29" width="145" height="42">
<mask id="path-261-inside-2_352_2234" fill="white">
<path fill-rule="evenodd" clip-rule="evenodd" d="M48.7989 35.667C48.3907 35.8462 47.9398 35.9456 47.4657 35.9456C45.6261 35.9456 44.1348 34.4485 44.1348 32.6018C44.1348 30.7551 45.6261 29.2581 47.4657 29.2581C49.3054 29.2581 50.7967 30.7551 50.7967 32.6018C50.7967 33.2337 50.6221 33.8246 50.3187 34.3286C51.2337 33.7637 52.3119 33.4377 53.4662 33.4377H83.3777C83.3092 33.1706 83.2727 32.8905 83.2727 32.6018C83.2727 30.7551 84.764 29.2581 86.6037 29.2581C88.4433 29.2581 89.9346 30.7551 89.9346 32.6018C89.9346 32.8905 89.8982 33.1706 89.8297 33.4377H122.518C122.449 33.1706 122.413 32.8905 122.413 32.6018C122.413 30.7551 123.904 29.2581 125.744 29.2581C127.583 29.2581 129.075 30.7551 129.075 32.6018C129.075 32.8905 129.038 33.1706 128.97 33.4377H158.883C162.196 33.4377 164.883 36.124 164.883 39.4377V60.0393C164.883 63.353 162.196 66.0393 158.883 66.0393H128.97C129.038 66.3065 129.075 66.5866 129.075 66.8753C129.075 68.722 127.583 70.2191 125.744 70.2191C123.904 70.2191 122.413 68.722 122.413 66.8753C122.413 66.5866 122.449 66.3065 122.518 66.0393H89.8297C89.8982 66.3065 89.9346 66.5866 89.9346 66.8753C89.9346 68.722 88.4433 70.2191 86.6037 70.2191C84.764 70.2191 83.2727 68.722 83.2727 66.8753C83.2727 66.5866 83.3092 66.3065 83.3777 66.0393H53.4662C52.3119 66.0393 51.2337 65.7133 50.3187 65.1484C50.6221 65.6525 50.7967 66.2434 50.7967 66.8753C50.7967 68.722 49.3054 70.219 47.4657 70.219C45.6261 70.219 44.1348 68.722 44.1348 66.8753C44.1348 65.0286 45.6261 63.5315 47.4657 63.5315C47.9398 63.5315 48.3907 63.6309 48.7989 63.8101C47.9654 62.7798 47.4662 61.4678 47.4662 60.0393V39.4377C47.4662 38.0093 47.9654 36.6974 48.7989 35.667ZM165.715 35.9456C167.555 35.9456 169.046 34.4485 169.046 32.6018C169.046 30.7551 167.555 29.2581 165.715 29.2581C163.876 29.2581 162.384 30.7551 162.384 32.6018C162.384 34.4485 163.876 35.9456 165.715 35.9456ZM169.046 66.8753C169.046 68.722 167.555 70.2191 165.715 70.2191C163.876 70.2191 162.384 68.722 162.384 66.8753C162.384 65.0286 163.876 63.5316 165.715 63.5316C167.555 63.5316 169.046 65.0286 169.046 66.8753ZM184.868 35.9456C186.707 35.9456 188.199 34.4485 188.199 32.6018C188.199 30.7551 186.707 29.2581 184.868 29.2581C183.028 29.2581 181.537 30.7551 181.537 32.6018C181.537 34.4485 183.028 35.9456 184.868 35.9456ZM188.199 66.8753C188.199 68.722 186.707 70.2191 184.868 70.2191C183.028 70.2191 181.537 68.722 181.537 66.8753C181.537 65.0286 183.028 63.5316 184.868 63.5316C186.707 63.5316 188.199 65.0286 188.199 66.8753Z"/>
</mask>
<path fill-rule="evenodd" clip-rule="evenodd" d="M48.7989 35.667C48.3907 35.8462 47.9398 35.9456 47.4657 35.9456C45.6261 35.9456 44.1348 34.4485 44.1348 32.6018C44.1348 30.7551 45.6261 29.2581 47.4657 29.2581C49.3054 29.2581 50.7967 30.7551 50.7967 32.6018C50.7967 33.2337 50.6221 33.8246 50.3187 34.3286C51.2337 33.7637 52.3119 33.4377 53.4662 33.4377H83.3777C83.3092 33.1706 83.2727 32.8905 83.2727 32.6018C83.2727 30.7551 84.764 29.2581 86.6037 29.2581C88.4433 29.2581 89.9346 30.7551 89.9346 32.6018C89.9346 32.8905 89.8982 33.1706 89.8297 33.4377H122.518C122.449 33.1706 122.413 32.8905 122.413 32.6018C122.413 30.7551 123.904 29.2581 125.744 29.2581C127.583 29.2581 129.075 30.7551 129.075 32.6018C129.075 32.8905 129.038 33.1706 128.97 33.4377H158.883C162.196 33.4377 164.883 36.124 164.883 39.4377V60.0393C164.883 63.353 162.196 66.0393 158.883 66.0393H128.97C129.038 66.3065 129.075 66.5866 129.075 66.8753C129.075 68.722 127.583 70.2191 125.744 70.2191C123.904 70.2191 122.413 68.722 122.413 66.8753C122.413 66.5866 122.449 66.3065 122.518 66.0393H89.8297C89.8982 66.3065 89.9346 66.5866 89.9346 66.8753C89.9346 68.722 88.4433 70.2191 86.6037 70.2191C84.764 70.2191 83.2727 68.722 83.2727 66.8753C83.2727 66.5866 83.3092 66.3065 83.3777 66.0393H53.4662C52.3119 66.0393 51.2337 65.7133 50.3187 65.1484C50.6221 65.6525 50.7967 66.2434 50.7967 66.8753C50.7967 68.722 49.3054 70.219 47.4657 70.219C45.6261 70.219 44.1348 68.722 44.1348 66.8753C44.1348 65.0286 45.6261 63.5315 47.4657 63.5315C47.9398 63.5315 48.3907 63.6309 48.7989 63.8101C47.9654 62.7798 47.4662 61.4678 47.4662 60.0393V39.4377C47.4662 38.0093 47.9654 36.6974 48.7989 35.667ZM165.715 35.9456C167.555 35.9456 169.046 34.4485 169.046 32.6018C169.046 30.7551 167.555 29.2581 165.715 29.2581C163.876 29.2581 162.384 30.7551 162.384 32.6018C162.384 34.4485 163.876 35.9456 165.715 35.9456ZM169.046 66.8753C169.046 68.722 167.555 70.2191 165.715 70.2191C163.876 70.2191 162.384 68.722 162.384 66.8753C162.384 65.0286 163.876 63.5316 165.715 63.5316C167.555 63.5316 169.046 65.0286 169.046 66.8753ZM184.868 35.9456C186.707 35.9456 188.199 34.4485 188.199 32.6018C188.199 30.7551 186.707 29.2581 184.868 29.2581C183.028 29.2581 181.537 30.7551 181.537 32.6018C181.537 34.4485 183.028 35.9456 184.868 35.9456ZM188.199 66.8753C188.199 68.722 186.707 70.2191 184.868 70.2191C183.028 70.2191 181.537 68.722 181.537 66.8753C181.537 65.0286 183.028 63.5316 184.868 63.5316C186.707 63.5316 188.199 65.0286 188.199 66.8753Z" fill="#CCCCCC"/>
<path d="M48.7989 35.667L49.5764 36.2959L48.397 34.7513L48.7989 35.667ZM50.3187 34.3286L49.462 33.8129L50.844 35.1795L50.3187 34.3286ZM83.3777 33.4377V34.4377H84.6664L84.3463 33.1894L83.3777 33.4377ZM89.8297 33.4377L88.861 33.1894L88.541 34.4377H89.8297V33.4377ZM122.518 33.4377V34.4377H123.806L123.486 33.1894L122.518 33.4377ZM128.97 33.4377L128.001 33.1894L127.681 34.4377H128.97V33.4377ZM128.97 66.0393V65.0393H127.681L128.001 66.2877L128.97 66.0393ZM122.518 66.0393L123.486 66.2877L123.807 65.0393H122.518V66.0393ZM89.8297 66.0393V65.0393H88.5409L88.861 66.2877L89.8297 66.0393ZM83.3777 66.0393L84.3463 66.2877L84.6664 65.0393H83.3777V66.0393ZM50.3187 65.1484L50.844 64.2975L49.4619 65.6642L50.3187 65.1484ZM48.7989 63.8101L48.397 64.7258L49.5764 63.1812L48.7989 63.8101ZM47.4657 36.9456C48.0808 36.9456 48.6683 36.8164 49.2008 36.5827L48.397 34.7513C48.113 34.876 47.7987 34.9456 47.4657 34.9456V36.9456ZM43.1348 32.6018C43.1348 34.9972 45.0702 36.9456 47.4657 36.9456V34.9456C46.182 34.9456 45.1348 33.8998 45.1348 32.6018H43.1348ZM47.4657 28.2581C45.0702 28.2581 43.1348 30.2064 43.1348 32.6018H45.1348C45.1348 31.3038 46.182 30.2581 47.4657 30.2581V28.2581ZM51.7967 32.6018C51.7967 30.2064 49.8613 28.2581 47.4657 28.2581V30.2581C48.7495 30.2581 49.7967 31.3038 49.7967 32.6018H51.7967ZM51.1755 34.8443C51.5701 34.1888 51.7967 33.4202 51.7967 32.6018H49.7967C49.7967 33.0471 49.6742 33.4603 49.462 33.8129L51.1755 34.8443ZM50.844 35.1795C51.6057 34.7093 52.5027 34.4377 53.4662 34.4377V32.4377C52.1211 32.4377 50.8618 32.8181 49.7934 33.4777L50.844 35.1795ZM53.4662 34.4377H83.3777V32.4377H53.4662V34.4377ZM84.3463 33.1894C84.2985 33.0027 84.2727 32.806 84.2727 32.6018H82.2727C82.2727 32.9749 82.3198 33.3384 82.409 33.6861L84.3463 33.1894ZM84.2727 32.6018C84.2727 31.3038 85.3199 30.2581 86.6037 30.2581V28.2581C84.2081 28.2581 82.2727 30.2064 82.2727 32.6018H84.2727ZM86.6037 30.2581C87.8874 30.2581 88.9346 31.3038 88.9346 32.6018H90.9346C90.9346 30.2064 88.9992 28.2581 86.6037 28.2581V30.2581ZM88.9346 32.6018C88.9346 32.806 88.9089 33.0027 88.861 33.1894L90.7984 33.6861C90.8875 33.3384 90.9346 32.9749 90.9346 32.6018H88.9346ZM89.8297 34.4377H122.518V32.4377H89.8297V34.4377ZM123.486 33.1894C123.439 33.0027 123.413 32.806 123.413 32.6018H121.413C121.413 32.9749 121.46 33.3384 121.549 33.6861L123.486 33.1894ZM123.413 32.6018C123.413 31.3038 124.46 30.2581 125.744 30.2581V28.2581C123.348 28.2581 121.413 30.2064 121.413 32.6018H123.413ZM125.744 30.2581C127.028 30.2581 128.075 31.3038 128.075 32.6018H130.075C130.075 30.2064 128.139 28.2581 125.744 28.2581V30.2581ZM128.075 32.6018C128.075 32.806 128.049 33.0027 128.001 33.1894L129.938 33.6861C130.028 33.3384 130.075 32.9749 130.075 32.6018H128.075ZM128.97 34.4377H158.883V32.4377H128.97V34.4377ZM158.883 34.4377C161.644 34.4377 163.883 36.6763 163.883 39.4377H165.883C165.883 35.5717 162.749 32.4377 158.883 32.4377V34.4377ZM163.883 39.4377V60.0393H165.883V39.4377H163.883ZM163.883 60.0393C163.883 62.8007 161.644 65.0393 158.883 65.0393V67.0393C162.749 67.0393 165.883 63.9053 165.883 60.0393H163.883ZM158.883 65.0393H128.97V67.0393H158.883V65.0393ZM130.075 66.8753C130.075 66.5022 130.028 66.1386 129.938 65.7909L128.001 66.2877C128.049 66.4744 128.075 66.6711 128.075 66.8753H130.075ZM125.744 71.2191C128.139 71.2191 130.075 69.2707 130.075 66.8753H128.075C128.075 68.1733 127.028 69.2191 125.744 69.2191V71.2191ZM121.413 66.8753C121.413 69.2707 123.348 71.2191 125.744 71.2191V69.2191C124.46 69.2191 123.413 68.1733 123.413 66.8753H121.413ZM121.549 65.7909C121.46 66.1386 121.413 66.5022 121.413 66.8753H123.413C123.413 66.6711 123.439 66.4744 123.486 66.2877L121.549 65.7909ZM122.518 65.0393H89.8297V67.0393H122.518V65.0393ZM90.9346 66.8753C90.9346 66.5022 90.8875 66.1386 90.7983 65.7909L88.861 66.2877C88.9089 66.4744 88.9346 66.6711 88.9346 66.8753H90.9346ZM86.6037 71.2191C88.9992 71.2191 90.9346 69.2707 90.9346 66.8753H88.9346C88.9346 68.1733 87.8874 69.2191 86.6037 69.2191V71.2191ZM82.2727 66.8753C82.2727 69.2707 84.2081 71.2191 86.6037 71.2191V69.2191C85.3199 69.2191 84.2727 68.1733 84.2727 66.8753H82.2727ZM82.409 65.7909C82.3199 66.1386 82.2727 66.5022 82.2727 66.8753H84.2727C84.2727 66.6711 84.2985 66.4744 84.3463 66.2877L82.409 65.7909ZM83.3777 65.0393H53.4662V67.0393H83.3777V65.0393ZM53.4662 65.0393C52.5027 65.0393 51.6057 64.7678 50.844 64.2975L49.7934 65.9993C50.8617 66.6589 52.1211 67.0393 53.4662 67.0393V65.0393ZM51.7967 66.8753C51.7967 66.0568 51.57 65.2882 51.1754 64.6327L49.4619 65.6642C49.6741 66.0167 49.7967 66.43 49.7967 66.8753H51.7967ZM47.4657 71.219C49.8613 71.219 51.7967 69.2707 51.7967 66.8753H49.7967C49.7967 68.1733 48.7495 69.219 47.4657 69.219V71.219ZM43.1348 66.8753C43.1348 69.2707 45.0702 71.219 47.4657 71.219V69.219C46.182 69.219 45.1348 68.1733 45.1348 66.8753H43.1348ZM47.4657 62.5315C45.0702 62.5315 43.1348 64.4799 43.1348 66.8753H45.1348C45.1348 65.5773 46.182 64.5315 47.4657 64.5315V62.5315ZM49.2008 62.8944C48.6684 62.6607 48.0808 62.5315 47.4657 62.5315V64.5315C47.7987 64.5315 48.113 64.6011 48.397 64.7258L49.2008 62.8944ZM49.5764 63.1812C48.8816 62.3223 48.4662 61.2307 48.4662 60.0393H46.4662C46.4662 61.705 47.0492 63.2372 48.0215 64.4391L49.5764 63.1812ZM48.4662 60.0393V39.4377H46.4662V60.0393H48.4662ZM48.4662 39.4377C48.4662 38.2464 48.8816 37.1548 49.5764 36.2959L48.0214 35.0381C47.0492 36.2399 46.4662 37.7721 46.4662 39.4377H48.4662ZM168.046 32.6018C168.046 33.8998 166.999 34.9456 165.715 34.9456V36.9456C168.111 36.9456 170.046 34.9972 170.046 32.6018H168.046ZM165.715 30.2581C166.999 30.2581 168.046 31.3038 168.046 32.6018H170.046C170.046 30.2064 168.111 28.2581 165.715 28.2581V30.2581ZM163.384 32.6018C163.384 31.3038 164.432 30.2581 165.715 30.2581V28.2581C163.32 28.2581 161.384 30.2064 161.384 32.6018H163.384ZM165.715 34.9456C164.432 34.9456 163.384 33.8998 163.384 32.6018H161.384C161.384 34.9972 163.32 36.9456 165.715 36.9456V34.9456ZM165.715 71.2191C168.111 71.2191 170.046 69.2707 170.046 66.8753H168.046C168.046 68.1733 166.999 69.2191 165.715 69.2191V71.2191ZM161.384 66.8753C161.384 69.2707 163.32 71.2191 165.715 71.2191V69.2191C164.432 69.2191 163.384 68.1733 163.384 66.8753H161.384ZM165.715 62.5316C163.32 62.5316 161.384 64.4799 161.384 66.8753H163.384C163.384 65.5773 164.432 64.5316 165.715 64.5316V62.5316ZM170.046 66.8753C170.046 64.4799 168.111 62.5316 165.715 62.5316V64.5316C166.999 64.5316 168.046 65.5773 168.046 66.8753H170.046ZM187.199 32.6018C187.199 33.8998 186.151 34.9456 184.868 34.9456V36.9456C187.263 36.9456 189.199 34.9972 189.199 32.6018H187.199ZM184.868 30.2581C186.151 30.2581 187.199 31.3038 187.199 32.6018H189.199C189.199 30.2064 187.263 28.2581 184.868 28.2581V30.2581ZM182.537 32.6018C182.537 31.3038 183.584 30.2581 184.868 30.2581V28.2581C182.472 28.2581 180.537 30.2064 180.537 32.6018H182.537ZM184.868 34.9456C183.584 34.9456 182.537 33.8998 182.537 32.6018H180.537C180.537 34.9972 182.472 36.9456 184.868 36.9456V34.9456ZM184.868 71.2191C187.263 71.2191 189.199 69.2707 189.199 66.8753H187.199C187.199 68.1733 186.151 69.2191 184.868 69.2191V71.2191ZM180.537 66.8753C180.537 69.2707 182.472 71.2191 184.868 71.2191V69.2191C183.584 69.2191 182.537 68.1733 182.537 66.8753H180.537ZM184.868 62.5316C182.472 62.5316 180.537 64.4799 180.537 66.8753H182.537C182.537 65.5773 183.584 64.5316 184.868 64.5316V62.5316ZM189.199 66.8753C189.199 64.4799 187.263 62.5316 184.868 62.5316V64.5316C186.151 64.5316 187.199 65.5773 187.199 66.8753H189.199Z" fill="black" mask="url(#path-261-inside-2_352_2234)"/>
</mask>
<g mask="url(#mask5_352_2234)">
<path d="M47.26 1.29602L-40.7227 89.6165" stroke="#666666"/>
<path d="M52.1761 1.29602L-35.8066 89.6165" stroke="#666666"/>
<path d="M57.0921 1.29602L-30.8906 89.6165" stroke="#666666"/>
<path d="M62.0061 1.29602L-25.9766 89.6165" stroke="#666666"/>
<path d="M66.9241 1.29602L-21.0586 89.6165" stroke="#666666"/>
<path d="M71.8382 1.29602L-16.1445 89.6165" stroke="#666666"/>
<path d="M76.7542 1.29602L-11.2285 89.6165" stroke="#666666"/>
<path d="M81.6702 1.29602L-6.3125 89.6165" stroke="#666666"/>
<path d="M86.5862 1.29602L-1.39648 89.6165" stroke="#666666"/>
<path d="M91.5022 1.29602L3.51953 89.6165" stroke="#666666"/>
<path d="M96.4163 1.29602L8.43359 89.6165" stroke="#666666"/>
<path d="M101.332 1.29602L13.3496 89.6165" stroke="#666666"/>
<path d="M106.248 1.29602L18.2656 89.6165" stroke="#666666"/>
<path d="M111.164 1.29602L23.1816 89.6165" stroke="#666666"/>
<path d="M116.08 1.29602L28.0977 89.6165" stroke="#666666"/>
<path d="M120.994 1.29602L33.0117 89.6165" stroke="#666666"/>
<path d="M125.91 1.29602L37.9277 89.6165" stroke="#666666"/>
<path d="M130.826 1.29602L42.8438 89.6165" stroke="#666666"/>
<path d="M135.742 1.29602L47.7598 89.6165" stroke="#666666"/>
<path d="M140.658 1.29602L52.6758 89.6165" stroke="#666666"/>
<path d="M145.573 1.29602L57.5898 89.6165" stroke="#666666"/>
<path d="M150.489 1.29602L62.5059 89.6165" stroke="#666666"/>
<path d="M155.405 1.29602L67.4219 89.6165" stroke="#666666"/>
<path d="M160.321 1.29602L72.3379 89.6165" stroke="#666666"/>
<path d="M165.237 1.29602L77.2539 89.6165" stroke="#666666"/>
<path d="M170.151 1.29602L82.168 89.6165" stroke="#666666"/>
<path d="M175.067 1.29602L87.084 89.6165" stroke="#666666"/>
<path d="M179.983 1.29602L92 89.6165" stroke="#666666"/>
<path d="M184.899 1.29602L96.916 89.6165" stroke="#666666"/>
<path d="M189.815 1.29602L101.832 89.6165" stroke="#666666"/>
<path d="M194.729 1.29602L106.746 89.6165" stroke="#666666"/>
<path d="M199.645 1.29602L111.662 89.6165" stroke="#666666"/>
<path d="M204.561 1.29602L116.578 89.6165" stroke="#666666"/>
<path d="M209.477 1.29602L121.494 89.6165" stroke="#666666"/>
<path d="M214.393 1.29602L126.41 89.6165" stroke="#666666"/>
<path d="M219.307 1.29602L131.324 89.6165" stroke="#666666"/>
<path d="M224.223 1.29602L136.24 89.6165" stroke="#666666"/>
<path d="M229.141 1.29602L141.158 89.6165" stroke="#666666"/>
<path d="M234.055 1.29602L146.072 89.6165" stroke="#666666"/>
<path d="M238.971 1.29602L150.988 89.6165" stroke="#666666"/>
<path d="M243.885 1.29602L155.902 89.6165" stroke="#666666"/>
<path d="M248.801 1.29602L160.818 89.6165" stroke="#666666"/>
<path d="M253.719 1.29602L165.736 89.6165" stroke="#666666"/>
<path d="M258.633 1.29602L170.65 89.6165" stroke="#666666"/>
<path d="M263.549 1.29602L175.566 89.6165" stroke="#666666"/>
<path d="M268.463 1.29602L180.48 89.6165" stroke="#666666"/>
<path d="M273.379 1.29602L185.396 89.6165" stroke="#666666"/>
<mask id="path-310-inside-3_352_2234" fill="white">
<path fill-rule="evenodd" clip-rule="evenodd" d="M48.7989 35.667C48.3907 35.8462 47.9398 35.9456 47.4657 35.9456C45.6261 35.9456 44.1348 34.4485 44.1348 32.6018C44.1348 30.7551 45.6261 29.2581 47.4657 29.2581C49.3054 29.2581 50.7967 30.7551 50.7967 32.6018C50.7967 33.2337 50.6221 33.8246 50.3187 34.3286C51.2337 33.7637 52.3119 33.4377 53.4662 33.4377H83.3777C83.3092 33.1706 83.2727 32.8905 83.2727 32.6018C83.2727 30.7551 84.764 29.2581 86.6037 29.2581C88.4433 29.2581 89.9346 30.7551 89.9346 32.6018C89.9346 32.8905 89.8982 33.1706 89.8297 33.4377H122.518C122.449 33.1706 122.413 32.8905 122.413 32.6018C122.413 30.7551 123.904 29.2581 125.744 29.2581C127.583 29.2581 129.075 30.7551 129.075 32.6018C129.075 32.8905 129.038 33.1706 128.97 33.4377H158.883C162.196 33.4377 164.883 36.124 164.883 39.4377V60.0393C164.883 63.353 162.196 66.0393 158.883 66.0393H128.97C129.038 66.3065 129.075 66.5866 129.075 66.8753C129.075 68.722 127.583 70.2191 125.744 70.2191C123.904 70.2191 122.413 68.722 122.413 66.8753C122.413 66.5866 122.449 66.3065 122.518 66.0393H89.8297C89.8982 66.3065 89.9346 66.5866 89.9346 66.8753C89.9346 68.722 88.4433 70.2191 86.6037 70.2191C84.764 70.2191 83.2727 68.722 83.2727 66.8753C83.2727 66.5866 83.3092 66.3065 83.3777 66.0393H53.4662C52.3119 66.0393 51.2337 65.7133 50.3187 65.1484C50.6221 65.6525 50.7967 66.2434 50.7967 66.8753C50.7967 68.722 49.3054 70.219 47.4657 70.219C45.6261 70.219 44.1348 68.722 44.1348 66.8753C44.1348 65.0286 45.6261 63.5315 47.4657 63.5315C47.9398 63.5315 48.3907 63.6309 48.7989 63.8101C47.9654 62.7798 47.4662 61.4678 47.4662 60.0393V39.4377C47.4662 38.0093 47.9654 36.6974 48.7989 35.667ZM165.715 35.9456C167.555 35.9456 169.046 34.4485 169.046 32.6018C169.046 30.7551 167.555 29.2581 165.715 29.2581C163.876 29.2581 162.384 30.7551 162.384 32.6018C162.384 34.4485 163.876 35.9456 165.715 35.9456ZM169.046 66.8753C169.046 68.722 167.555 70.2191 165.715 70.2191C163.876 70.2191 162.384 68.722 162.384 66.8753C162.384 65.0286 163.876 63.5316 165.715 63.5316C167.555 63.5316 169.046 65.0286 169.046 66.8753ZM184.868 35.9456C186.707 35.9456 188.199 34.4485 188.199 32.6018C188.199 30.7551 186.707 29.2581 184.868 29.2581C183.028 29.2581 181.537 30.7551 181.537 32.6018C181.537 34.4485 183.028 35.9456 184.868 35.9456ZM188.199 66.8753C188.199 68.722 186.707 70.2191 184.868 70.2191C183.028 70.2191 181.537 68.722 181.537 66.8753C181.537 65.0286 183.028 63.5316 184.868 63.5316C186.707 63.5316 188.199 65.0286 188.199 66.8753Z"/>
</mask>
<path d="M48.7989 35.667L49.5764 36.2959L48.397 34.7513L48.7989 35.667ZM50.3187 34.3286L49.462 33.8129L50.844 35.1795L50.3187 34.3286ZM83.3777 33.4377V34.4377H84.6664L84.3463 33.1894L83.3777 33.4377ZM89.8297 33.4377L88.861 33.1894L88.541 34.4377H89.8297V33.4377ZM122.518 33.4377V34.4377H123.806L123.486 33.1894L122.518 33.4377ZM128.97 33.4377L128.001 33.1894L127.681 34.4377H128.97V33.4377ZM128.97 66.0393V65.0393H127.681L128.001 66.2877L128.97 66.0393ZM122.518 66.0393L123.486 66.2877L123.807 65.0393H122.518V66.0393ZM89.8297 66.0393V65.0393H88.5409L88.861 66.2877L89.8297 66.0393ZM83.3777 66.0393L84.3463 66.2877L84.6664 65.0393H83.3777V66.0393ZM50.3187 65.1484L50.844 64.2975L49.4619 65.6642L50.3187 65.1484ZM48.7989 63.8101L48.397 64.7258L49.5764 63.1812L48.7989 63.8101ZM47.4657 36.9456C48.0808 36.9456 48.6683 36.8164 49.2008 36.5827L48.397 34.7513C48.113 34.876 47.7987 34.9456 47.4657 34.9456V36.9456ZM43.1348 32.6018C43.1348 34.9972 45.0702 36.9456 47.4657 36.9456V34.9456C46.182 34.9456 45.1348 33.8998 45.1348 32.6018H43.1348ZM47.4657 28.2581C45.0702 28.2581 43.1348 30.2064 43.1348 32.6018H45.1348C45.1348 31.3038 46.182 30.2581 47.4657 30.2581V28.2581ZM51.7967 32.6018C51.7967 30.2064 49.8613 28.2581 47.4657 28.2581V30.2581C48.7495 30.2581 49.7967 31.3038 49.7967 32.6018H51.7967ZM51.1755 34.8443C51.5701 34.1888 51.7967 33.4202 51.7967 32.6018H49.7967C49.7967 33.0471 49.6742 33.4603 49.462 33.8129L51.1755 34.8443ZM50.844 35.1795C51.6057 34.7093 52.5027 34.4377 53.4662 34.4377V32.4377C52.1211 32.4377 50.8618 32.8181 49.7934 33.4777L50.844 35.1795ZM53.4662 34.4377H83.3777V32.4377H53.4662V34.4377ZM84.3463 33.1894C84.2985 33.0027 84.2727 32.806 84.2727 32.6018H82.2727C82.2727 32.9749 82.3198 33.3384 82.409 33.6861L84.3463 33.1894ZM84.2727 32.6018C84.2727 31.3038 85.3199 30.2581 86.6037 30.2581V28.2581C84.2081 28.2581 82.2727 30.2064 82.2727 32.6018H84.2727ZM86.6037 30.2581C87.8874 30.2581 88.9346 31.3038 88.9346 32.6018H90.9346C90.9346 30.2064 88.9992 28.2581 86.6037 28.2581V30.2581ZM88.9346 32.6018C88.9346 32.806 88.9089 33.0027 88.861 33.1894L90.7984 33.6861C90.8875 33.3384 90.9346 32.9749 90.9346 32.6018H88.9346ZM89.8297 34.4377H122.518V32.4377H89.8297V34.4377ZM123.486 33.1894C123.439 33.0027 123.413 32.806 123.413 32.6018H121.413C121.413 32.9749 121.46 33.3384 121.549 33.6861L123.486 33.1894ZM123.413 32.6018C123.413 31.3038 124.46 30.2581 125.744 30.2581V28.2581C123.348 28.2581 121.413 30.2064 121.413 32.6018H123.413ZM125.744 30.2581C127.028 30.2581 128.075 31.3038 128.075 32.6018H130.075C130.075 30.2064 128.139 28.2581 125.744 28.2581V30.2581ZM128.075 32.6018C128.075 32.806 128.049 33.0027 128.001 33.1894L129.938 33.6861C130.028 33.3384 130.075 32.9749 130.075 32.6018H128.075ZM128.97 34.4377H158.883V32.4377H128.97V34.4377ZM158.883 34.4377C161.644 34.4377 163.883 36.6763 163.883 39.4377H165.883C165.883 35.5717 162.749 32.4377 158.883 32.4377V34.4377ZM163.883 39.4377V60.0393H165.883V39.4377H163.883ZM163.883 60.0393C163.883 62.8007 161.644 65.0393 158.883 65.0393V67.0393C162.749 67.0393 165.883 63.9053 165.883 60.0393H163.883ZM158.883 65.0393H128.97V67.0393H158.883V65.0393ZM130.075 66.8753C130.075 66.5022 130.028 66.1386 129.938 65.7909L128.001 66.2877C128.049 66.4744 128.075 66.6711 128.075 66.8753H130.075ZM125.744 71.2191C128.139 71.2191 130.075 69.2707 130.075 66.8753H128.075C128.075 68.1733 127.028 69.2191 125.744 69.2191V71.2191ZM121.413 66.8753C121.413 69.2707 123.348 71.2191 125.744 71.2191V69.2191C124.46 69.2191 123.413 68.1733 123.413 66.8753H121.413ZM121.549 65.7909C121.46 66.1386 121.413 66.5022 121.413 66.8753H123.413C123.413 66.6711 123.439 66.4744 123.486 66.2877L121.549 65.7909ZM122.518 65.0393H89.8297V67.0393H122.518V65.0393ZM90.9346 66.8753C90.9346 66.5022 90.8875 66.1386 90.7983 65.7909L88.861 66.2877C88.9089 66.4744 88.9346 66.6711 88.9346 66.8753H90.9346ZM86.6037 71.2191C88.9992 71.2191 90.9346 69.2707 90.9346 66.8753H88.9346C88.9346 68.1733 87.8874 69.2191 86.6037 69.2191V71.2191ZM82.2727 66.8753C82.2727 69.2707 84.2081 71.2191 86.6037 71.2191V69.2191C85.3199 69.2191 84.2727 68.1733 84.2727 66.8753H82.2727ZM82.409 65.7909C82.3199 66.1386 82.2727 66.5022 82.2727 66.8753H84.2727C84.2727 66.6711 84.2985 66.4744 84.3463 66.2877L82.409 65.7909ZM83.3777 65.0393H53.4662V67.0393H83.3777V65.0393ZM53.4662 65.0393C52.5027 65.0393 51.6057 64.7678 50.844 64.2975L49.7934 65.9993C50.8617 66.6589 52.1211 67.0393 53.4662 67.0393V65.0393ZM51.7967 66.8753C51.7967 66.0568 51.57 65.2882 51.1754 64.6327L49.4619 65.6642C49.6741 66.0167 49.7967 66.43 49.7967 66.8753H51.7967ZM47.4657 71.219C49.8613 71.219 51.7967 69.2707 51.7967 66.8753H49.7967C49.7967 68.1733 48.7495 69.219 47.4657 69.219V71.219ZM43.1348 66.8753C43.1348 69.2707 45.0702 71.219 47.4657 71.219V69.219C46.182 69.219 45.1348 68.1733 45.1348 66.8753H43.1348ZM47.4657 62.5315C45.0702 62.5315 43.1348 64.4799 43.1348 66.8753H45.1348C45.1348 65.5773 46.182 64.5315 47.4657 64.5315V62.5315ZM49.2008 62.8944C48.6684 62.6607 48.0808 62.5315 47.4657 62.5315V64.5315C47.7987 64.5315 48.113 64.6011 48.397 64.7258L49.2008 62.8944ZM49.5764 63.1812C48.8816 62.3223 48.4662 61.2307 48.4662 60.0393H46.4662C46.4662 61.705 47.0492 63.2372 48.0215 64.4391L49.5764 63.1812ZM48.4662 60.0393V39.4377H46.4662V60.0393H48.4662ZM48.4662 39.4377C48.4662 38.2464 48.8816 37.1548 49.5764 36.2959L48.0214 35.0381C47.0492 36.2399 46.4662 37.7721 46.4662 39.4377H48.4662ZM168.046 32.6018C168.046 33.8998 166.999 34.9456 165.715 34.9456V36.9456C168.111 36.9456 170.046 34.9972 170.046 32.6018H168.046ZM165.715 30.2581C166.999 30.2581 168.046 31.3038 168.046 32.6018H170.046C170.046 30.2064 168.111 28.2581 165.715 28.2581V30.2581ZM163.384 32.6018C163.384 31.3038 164.432 30.2581 165.715 30.2581V28.2581C163.32 28.2581 161.384 30.2064 161.384 32.6018H163.384ZM165.715 34.9456C164.432 34.9456 163.384 33.8998 163.384 32.6018H161.384C161.384 34.9972 163.32 36.9456 165.715 36.9456V34.9456ZM165.715 71.2191C168.111 71.2191 170.046 69.2707 170.046 66.8753H168.046C168.046 68.1733 166.999 69.2191 165.715 69.2191V71.2191ZM161.384 66.8753C161.384 69.2707 163.32 71.2191 165.715 71.2191V69.2191C164.432 69.2191 163.384 68.1733 163.384 66.8753H161.384ZM165.715 62.5316C163.32 62.5316 161.384 64.4799 161.384 66.8753H163.384C163.384 65.5773 164.432 64.5316 165.715 64.5316V62.5316ZM170.046 66.8753C170.046 64.4799 168.111 62.5316 165.715 62.5316V64.5316C166.999 64.5316 168.046 65.5773 168.046 66.8753H170.046ZM187.199 32.6018C187.199 33.8998 186.151 34.9456 184.868 34.9456V36.9456C187.263 36.9456 189.199 34.9972 189.199 32.6018H187.199ZM184.868 30.2581C186.151 30.2581 187.199 31.3038 187.199 32.6018H189.199C189.199 30.2064 187.263 28.2581 184.868 28.2581V30.2581ZM182.537 32.6018C182.537 31.3038 183.584 30.2581 184.868 30.2581V28.2581C182.472 28.2581 180.537 30.2064 180.537 32.6018H182.537ZM184.868 34.9456C183.584 34.9456 182.537 33.8998 182.537 32.6018H180.537C180.537 34.9972 182.472 36.9456 184.868 36.9456V34.9456ZM184.868 71.2191C187.263 71.2191 189.199 69.2707 189.199 66.8753H187.199C187.199 68.1733 186.151 69.2191 184.868 69.2191V71.2191ZM180.537 66.8753C180.537 69.2707 182.472 71.2191 184.868 71.2191V69.2191C183.584 69.2191 182.537 68.1733 182.537 66.8753H180.537ZM184.868 62.5316C182.472 62.5316 180.537 64.4799 180.537 66.8753H182.537C182.537 65.5773 183.584 64.5316 184.868 64.5316V62.5316ZM189.199 66.8753C189.199 64.4799 187.263 62.5316 184.868 62.5316V64.5316C186.151 64.5316 187.199 65.5773 187.199 66.8753H189.199Z" fill="black" mask="url(#path-310-inside-3_352_2234)"/>
</g>
<path d="M1.88477 128.244V127.025L5.55273 121.341H7.45117V126.99H8.56445V128.244H7.45117V129.826H5.99805V128.244H1.88477ZM3.44336 126.99H6.02148V123.076H5.92773L3.44336 126.931V126.99ZM9.86523 129.826V121.341H15.3027V122.619H11.3887V124.939H14.9277V126.216H11.3887V129.826H9.86523ZM27.4316 120.708V124.388H24.4785V125.501H28.6621V126.556H19.0059V125.501H23.166V124.388H20.2246V120.708H27.4316ZM20.0723 128.478V127.447H27.4785V130.869H26.1777V128.478H20.0723ZM21.4902 123.357H26.1426V121.728H21.4902V123.357ZM34.1465 126.896C36.4492 126.902 37.9023 127.628 37.9082 128.888C37.9023 130.119 36.4492 130.857 34.1465 130.857C31.8672 130.857 30.3965 130.119 30.3965 128.888C30.3965 127.628 31.8672 126.902 34.1465 126.896ZM29.4004 126.134V125.079H33.127V123.158H34.416V125.079H39.0098V126.134H29.4004ZM30.502 121.81V120.779H37.8379V121.658C37.8438 122.495 37.8438 123.386 37.5449 124.47L36.2559 124.353C36.5195 123.328 36.5371 122.578 36.5371 121.81H30.502ZM31.709 128.888C31.6973 129.509 32.6172 129.849 34.1465 129.849C35.6816 129.849 36.6074 129.509 36.6191 128.888C36.6074 128.244 35.6816 127.88 34.1465 127.88C32.6172 127.88 31.6973 128.244 31.709 128.888ZM48.8887 120.275V130.869H47.6348V120.275H48.8887ZM39.8535 124.857C39.8535 122.525 40.7559 121.078 42.1387 121.083C43.0352 121.078 43.7324 121.669 44.125 122.701H45.5137V120.462H46.7441V130.353H45.5137V127.013H44.125C43.7383 128.05 43.0352 128.648 42.1387 128.642C40.7559 128.648 39.8535 127.195 39.8535 124.857ZM41.0488 124.857C41.0371 126.515 41.4414 127.406 42.1387 127.4C42.8418 127.406 43.2754 126.515 43.2754 124.857C43.2754 123.204 42.8418 122.308 42.1387 122.314C41.4414 122.308 41.0371 123.204 41.0488 124.857ZM44.3887 123.755C44.4414 124.095 44.4707 124.464 44.4707 124.857C44.4707 125.244 44.4414 125.607 44.3945 125.947H45.5137V123.755H44.3887ZM59.7754 125.29V126.333H55.5801V127.353H58.6035V130.74H51.2559V127.353H54.291V126.333H50.1191V125.29H59.7754ZM50.9863 121.634V120.591H58.8848V121.634H57.4316V123.451H58.8262V124.505H51.0449V123.451H52.4395V121.634H50.9863ZM52.5449 129.685H57.3379V128.361H52.5449V129.685ZM53.7402 123.451H56.1191V121.634H53.7402V123.451ZM72.209 120.286V128.021H70.9082V124.142H69.0332V123.087H70.9082V120.286H72.209ZM63.3145 125.736C65.002 125.179 65.9043 123.796 65.9043 122.384V122.103H63.7012V121.048H69.4199V122.103H67.2285V122.396C67.2285 123.667 68.084 124.986 69.7246 125.525L69.0684 126.568C67.8848 126.163 67.0469 125.355 66.584 124.353C66.1211 125.466 65.2363 126.357 63.9824 126.79L63.3145 125.736ZM65.2598 130.658V127.341H66.5605V129.603H72.4785V130.658H65.2598ZM77.7168 122.818C77.7051 124.763 78.7305 126.708 80.4473 127.447L79.6738 128.49C78.4551 127.927 77.5645 126.808 77.0723 125.425C76.5859 126.913 75.6719 128.132 74.3887 128.736L73.5918 127.646C75.3555 126.884 76.3867 124.863 76.3926 122.818V121.13H77.7168V122.818ZM81.209 130.88V120.275H82.5215V130.88H81.209ZM92.8809 120.275V125.677H91.5918V120.275H92.8809ZM84.0684 124.646C85.7852 124.101 86.6875 122.742 86.6816 121.353V120.533H88.0293V121.353C88.0234 122.701 88.9199 123.96 90.5957 124.47L89.9629 125.478C88.7324 125.097 87.8535 124.312 87.373 123.304C86.8926 124.4 85.9902 125.261 84.7246 125.665L84.0684 124.646ZM85.873 127.177V126.169H92.9043V128.923H87.1738V129.744H93.2207V130.775H85.8965V127.951H91.6035V127.177H85.873Z" fill="#151515"/>
</svg>
