<svg width="234" height="136" viewBox="0 0 234 136" fill="none" xmlns="http://www.w3.org/2000/svg">
<rect x="8.32617" width="215.68" height="72.7266" rx="6" fill="white"/>
<path d="M53.5078 33.1278H227.468C230.782 33.1278 233.468 35.8141 233.468 39.1278V91.8309C233.468 95.1446 230.782 97.8309 227.468 97.8309H53.5078V33.1278Z" fill="white"/>
<rect x="0.832031" y="66.875" width="177.374" height="30.9297" rx="6" fill="white"/>
<path d="M110.423 110.254V97.0508H120.249V110.254V110.754H120.749H228.474C230.955 110.754 232.97 112.774 232.97 115.27V130.084C232.97 132.58 230.955 134.6 228.474 134.6H103.368C100.886 134.6 98.8711 132.58 98.8711 130.084V115.27C98.8711 112.774 100.886 110.754 103.368 110.754H109.923H110.423V110.254Z" fill="#CCCCCC" stroke="black"/>
<mask id="mask0_352_1508" style="mask-type:alpha" maskUnits="userSpaceOnUse" x="98" y="96" width="136" height="40">
<path d="M110.673 110.254V97.3008H119.999V110.254V111.004H120.749H228.474C230.816 111.004 232.72 112.911 232.72 115.27V130.084C232.72 132.443 230.816 134.35 228.474 134.35H103.368C101.025 134.35 99.1211 132.443 99.1211 130.084V115.27C99.1211 112.911 101.025 111.004 103.368 111.004H109.923H110.673V110.254Z" fill="#CCCCCC" stroke="black" stroke-width="1.5"/>
</mask>
<g mask="url(#mask0_352_1508)">
<path d="M101.391 69.0067L13.4082 157.327" stroke="#666666"/>
<path d="M106.307 69.0067L18.3242 157.327" stroke="#666666"/>
<path d="M111.223 69.0067L23.2402 157.327" stroke="#666666"/>
<path d="M116.137 69.0067L28.1543 157.327" stroke="#666666"/>
<path d="M121.055 69.0067L33.0723 157.327" stroke="#666666"/>
<path d="M125.969 69.0067L37.9863 157.327" stroke="#666666"/>
<path d="M130.885 69.0067L42.9023 157.327" stroke="#666666"/>
<path d="M135.801 69.0067L47.8184 157.327" stroke="#666666"/>
<path d="M140.715 69.0067L52.7324 157.327" stroke="#666666"/>
<path d="M145.633 69.0067L57.6504 157.327" stroke="#666666"/>
<path d="M150.547 69.0067L62.5645 157.327" stroke="#666666"/>
<path d="M155.463 69.0067L67.4805 157.327" stroke="#666666"/>
<path d="M160.379 69.0067L72.3965 157.327" stroke="#666666"/>
<path d="M165.295 69.0067L77.3125 157.327" stroke="#666666"/>
<path d="M170.211 69.0067L82.2285 157.327" stroke="#666666"/>
<path d="M175.125 69.0067L87.1426 157.327" stroke="#666666"/>
<path d="M180.041 69.0067L92.0586 157.327" stroke="#666666"/>
<path d="M184.957 69.0067L96.9746 157.327" stroke="#666666"/>
<path d="M189.873 69.0067L101.891 157.327" stroke="#666666"/>
<path d="M194.789 69.0067L106.807 157.327" stroke="#666666"/>
<path d="M199.703 69.0067L111.721 157.327" stroke="#666666"/>
<path d="M204.619 69.0067L116.637 157.327" stroke="#666666"/>
<path d="M209.535 69.0067L121.553 157.327" stroke="#666666"/>
<path d="M214.451 69.0067L126.469 157.327" stroke="#666666"/>
<path d="M219.367 69.0067L131.385 157.327" stroke="#666666"/>
<path d="M224.282 69.0067L136.299 157.327" stroke="#666666"/>
<path d="M229.198 69.0067L141.215 157.327" stroke="#666666"/>
<path d="M234.114 69.0067L146.131 157.327" stroke="#666666"/>
<path d="M239.03 69.0067L151.047 157.327" stroke="#666666"/>
<path d="M243.946 69.0067L155.963 157.327" stroke="#666666"/>
<path d="M248.86 69.0067L160.877 157.327" stroke="#666666"/>
<path d="M253.776 69.0067L165.793 157.327" stroke="#666666"/>
<path d="M258.692 69.0067L170.709 157.327" stroke="#666666"/>
<path d="M263.608 69.0067L175.625 157.327" stroke="#666666"/>
<path d="M268.524 69.0067L180.541 157.327" stroke="#666666"/>
<path d="M273.438 69.0067L185.455 157.327" stroke="#666666"/>
<path d="M278.354 69.0067L190.371 157.327" stroke="#666666"/>
<path d="M283.272 69.0067L195.289 157.327" stroke="#666666"/>
<path d="M288.186 69.0067L200.203 157.327" stroke="#666666"/>
<path d="M293.102 69.0067L205.119 157.327" stroke="#666666"/>
<path d="M298.016 69.0067L210.033 157.327" stroke="#666666"/>
<path d="M302.932 69.0067L214.949 157.327" stroke="#666666"/>
<path d="M307.85 69.0067L219.867 157.327" stroke="#666666"/>
<path d="M312.764 69.0067L224.781 157.327" stroke="#666666"/>
<path d="M317.68 69.0067L229.697 157.327" stroke="#666666"/>
<path d="M110.423 110.254V97.0508H120.249V110.254V110.754H120.749H228.474C230.955 110.754 232.97 112.774 232.97 115.27V130.084C232.97 132.58 230.955 134.6 228.474 134.6H103.368C100.886 134.6 98.8711 132.58 98.8711 130.084V115.27C98.8711 112.774 100.886 110.754 103.368 110.754H109.923H110.423V110.254Z" stroke="black"/>
</g>
<rect x="43.8027" y="33.9375" width="189.697" height="65.0391" rx="5.5" fill="#CCCCCC" stroke="black"/>
<mask id="mask1_352_1508" style="mask-type:alpha" maskUnits="userSpaceOnUse" x="43" y="33" width="191" height="67">
<rect x="44.0527" y="34.1875" width="189.197" height="64.5391" rx="5.25" fill="#CCCCCC" stroke="black" stroke-width="1.5"/>
</mask>
<g mask="url(#mask1_352_1508)">
<path d="M177.076 28.8248L89.0938 117.145" stroke="#666666"/>
<path d="M181.992 28.8248L94.0098 117.145" stroke="#666666"/>
<path d="M186.907 28.8248L98.9238 117.145" stroke="#666666"/>
<path d="M191.824 28.8248L103.842 117.145" stroke="#666666"/>
<path d="M196.739 28.8248L108.756 117.145" stroke="#666666"/>
<path d="M201.655 28.8248L113.672 117.145" stroke="#666666"/>
<path d="M206.571 28.8248L118.588 117.145" stroke="#666666"/>
<path d="M211.485 28.8248L123.502 117.145" stroke="#666666"/>
<path d="M216.403 28.8248L128.42 117.145" stroke="#666666"/>
<path d="M221.317 28.8248L133.334 117.145" stroke="#666666"/>
<path d="M226.233 28.8248L138.25 117.145" stroke="#666666"/>
<path d="M231.149 28.8248L143.166 117.145" stroke="#666666"/>
<path d="M236.063 28.8248L148.08 117.145" stroke="#666666"/>
<path d="M240.981 28.8248L152.998 117.145" stroke="#666666"/>
<path d="M245.895 28.8248L157.912 117.145" stroke="#666666"/>
<path d="M250.811 28.8248L162.828 117.145" stroke="#666666"/>
<path d="M255.727 28.8248L167.744 117.145" stroke="#666666"/>
<path d="M260.643 28.8248L172.66 117.145" stroke="#666666"/>
<path d="M265.559 28.8248L177.576 117.145" stroke="#666666"/>
<path d="M270.473 28.8248L182.49 117.145" stroke="#666666"/>
<path d="M275.389 28.8248L187.406 117.145" stroke="#666666"/>
<path d="M280.305 28.8248L192.322 117.145" stroke="#666666"/>
<path d="M285.221 28.8248L197.238 117.145" stroke="#666666"/>
<path d="M290.137 28.8248L202.154 117.145" stroke="#666666"/>
<path d="M295.051 28.8248L207.068 117.145" stroke="#666666"/>
<path d="M299.967 28.8248L211.984 117.145" stroke="#666666"/>
<path d="M304.883 28.8248L216.9 117.145" stroke="#666666"/>
<path d="M309.799 28.8248L221.816 117.145" stroke="#666666"/>
<path d="M314.715 28.8248L226.732 117.145" stroke="#666666"/>
<path d="M319.629 28.8248L231.646 117.145" stroke="#666666"/>
<rect x="43.8027" y="33.9375" width="189.697" height="65.0391" rx="5.5" stroke="black"/>
</g>
<rect x="0.5" y="66.5391" width="189.697" height="32.4375" rx="5.5" fill="#CCCCCC" stroke="black"/>
<mask id="mask2_352_1508" style="mask-type:alpha" maskUnits="userSpaceOnUse" x="0" y="66" width="191" height="34">
<rect x="0.75" y="66.7891" width="189.197" height="31.9375" rx="5.25" fill="#CCCCCC" stroke="black" stroke-width="1.5"/>
</mask>
<g mask="url(#mask2_352_1508)">
<path d="M3.637 35.9453L-84.3457 124.266" stroke="#666666"/>
<path d="M8.55106 35.9453L-79.4316 124.266" stroke="#666666"/>
<path d="M13.4671 35.9453L-74.5156 124.266" stroke="#666666"/>
<path d="M18.3831 35.9453L-69.5996 124.266" stroke="#666666"/>
<path d="M23.2991 35.9453L-64.6836 124.266" stroke="#666666"/>
<path d="M28.2151 35.9453L-59.7676 124.266" stroke="#666666"/>
<path d="M33.1292 35.9453L-54.8535 124.266" stroke="#666666"/>
<path d="M38.0452 35.9453L-49.9375 124.266" stroke="#666666"/>
<path d="M42.9612 35.9453L-45.0215 124.266" stroke="#666666"/>
<path d="M47.8772 35.9453L-40.1055 124.266" stroke="#666666"/>
<path d="M52.7932 35.9453L-35.1895 124.266" stroke="#666666"/>
<path d="M57.7073 35.9453L-30.2754 124.266" stroke="#666666"/>
<path d="M62.6233 35.9453L-25.3594 124.266" stroke="#666666"/>
<path d="M67.5393 35.9453L-20.4434 124.266" stroke="#666666"/>
<path d="M72.4554 35.9453L-15.5273 124.266" stroke="#666666"/>
<path d="M77.3714 35.9453L-10.6113 124.266" stroke="#666666"/>
<path d="M82.2854 35.9453L-5.69727 124.266" stroke="#666666"/>
<path d="M87.2015 35.9453L-0.78125 124.266" stroke="#666666"/>
<path d="M92.1175 35.9453L4.13477 124.266" stroke="#666666"/>
<path d="M97.0335 35.9453L9.05078 124.266" stroke="#666666"/>
<path d="M101.949 35.9453L13.9668 124.266" stroke="#666666"/>
<path d="M106.864 35.9453L18.8809 124.266" stroke="#666666"/>
<path d="M111.78 35.9453L23.7969 124.266" stroke="#666666"/>
<path d="M116.698 35.9453L28.7148 124.266" stroke="#666666"/>
<path d="M121.612 35.9453L33.6289 124.266" stroke="#666666"/>
<path d="M126.528 35.9453L38.5449 124.266" stroke="#666666"/>
<path d="M131.442 35.9453L43.459 124.266" stroke="#666666"/>
<path d="M136.358 35.9453L48.375 124.266" stroke="#666666"/>
<path d="M141.276 35.9453L53.293 124.266" stroke="#666666"/>
<path d="M146.19 35.9453L58.207 124.266" stroke="#666666"/>
<path d="M151.106 35.9453L63.123 124.266" stroke="#666666"/>
<path d="M156.02 35.9453L68.0371 124.266" stroke="#666666"/>
<path d="M160.936 35.9453L72.9531 124.266" stroke="#666666"/>
<path d="M165.854 35.9453L77.8711 124.266" stroke="#666666"/>
<path d="M170.768 35.9453L82.7852 124.266" stroke="#666666"/>
<path d="M175.684 35.9453L87.7012 124.266" stroke="#666666"/>
<path d="M180.598 35.9453L92.6152 124.266" stroke="#666666"/>
<path d="M185.514 35.9453L97.5312 124.266" stroke="#666666"/>
<path d="M190.432 35.9453L102.449 124.266" stroke="#666666"/>
<path d="M195.346 35.9453L107.363 124.266" stroke="#666666"/>
<path d="M200.262 35.9453L112.279 124.266" stroke="#666666"/>
<path d="M205.176 35.9453L117.193 124.266" stroke="#666666"/>
<path d="M210.092 35.9453L122.109 124.266" stroke="#666666"/>
<path d="M215.01 35.9453L127.027 124.266" stroke="#666666"/>
<path d="M219.924 35.9453L131.941 124.266" stroke="#666666"/>
<path d="M224.84 35.9453L136.857 124.266" stroke="#666666"/>
<rect x="0.5" y="66.5391" width="189.697" height="32.4375" rx="5.5" stroke="black"/>
</g>
<path d="M14.3281 0.5H219.673C222.711 0.5 225.173 2.96243 225.173 6V98.9766H8.82812V6C8.82812 2.96244 11.2906 0.5 14.3281 0.5Z" fill="white" stroke="black"/>
<path d="M201.107 98.2224L201.107 92.7888L169.793 92.7888L169.793 77.324L161.552 77.324L161.552 91.5349L129.075 91.5349L129.075 77.324L121.996 77.324L121.996 91.5349L89.9359 91.5349L89.9359 77.324L82.8576 77.324L82.8576 91.5349L50.7971 91.5349L50.7971 77.324L43.3025 77.324L43.3025 91.5349L15.8221 91.5349L15.8221 53.918L28.7295 53.918L28.7295 45.5586L15.8221 45.5586L15.8221 8.35937L43.3025 8.35937L43.3025 21.7344L50.7971 21.7344L50.7971 8.35937L82.8576 8.35937L82.8576 21.7344L89.9359 21.7344L89.9359 8.35937L121.996 8.35937L121.996 21.7344L129.075 21.7344L129.075 8.35937L161.552 8.35937L161.552 21.7344L169.793 21.7344L169.793 8.35937L216.096 8.35937L216.096 29.2578L203.605 29.2578L203.605 37.1992L224.84 37.1992M206.103 65.6211L206.103 98.2224M215.68 65.6211L215.68 88.6094" stroke="black"/>
<rect x="53.7949" y="39.7891" width="106.423" height="20.7344" rx="5.5" fill="#CCCCCC" stroke="black"/>
<mask id="mask3_352_1508" style="mask-type:alpha" maskUnits="userSpaceOnUse" x="53" y="39" width="108" height="23">
<rect x="53.7949" y="39.7891" width="106.423" height="20.7344" rx="5.5" fill="#CCCCCC" stroke="black"/>
</mask>
<g mask="url(#mask3_352_1508)">
<path d="M55.0003 2.17163L-32.9824 90.4921" stroke="#666666"/>
<path d="M59.9143 2.17163L-28.0684 90.4921" stroke="#666666"/>
<path d="M64.8323 2.17163L-23.1504 90.4921" stroke="#666666"/>
<path d="M69.7464 2.17163L-18.2363 90.4921" stroke="#666666"/>
<path d="M74.6624 2.17163L-13.3203 90.4921" stroke="#666666"/>
<path d="M79.5784 2.17163L-8.4043 90.4921" stroke="#666666"/>
<path d="M84.4925 2.17163L-3.49023 90.4921" stroke="#666666"/>
<path d="M89.4104 2.17163L1.42773 90.4921" stroke="#666666"/>
<path d="M94.3245 2.17163L6.3418 90.4921" stroke="#666666"/>
<path d="M99.2405 2.17163L11.2578 90.4921" stroke="#666666"/>
<path d="M104.157 2.17163L16.1738 90.4921" stroke="#666666"/>
<path d="M109.071 2.17163L21.0879 90.4921" stroke="#666666"/>
<path d="M113.989 2.17163L26.0059 90.4921" stroke="#666666"/>
<path d="M118.903 2.17163L30.9199 90.4921" stroke="#666666"/>
<path d="M123.819 2.17163L35.8359 90.4921" stroke="#666666"/>
<path d="M128.735 2.17163L40.752 90.4921" stroke="#666666"/>
<path d="M133.651 2.17163L45.668 90.4921" stroke="#666666"/>
<path d="M138.567 2.17163L50.584 90.4921" stroke="#666666"/>
<path d="M143.481 2.17163L55.498 90.4921" stroke="#666666"/>
<path d="M148.397 2.17163L60.4141 90.4921" stroke="#666666"/>
<path d="M153.313 2.17163L65.3301 90.4921" stroke="#666666"/>
<path d="M158.229 2.17163L70.2461 90.4921" stroke="#666666"/>
<path d="M163.145 2.17163L75.1621 90.4921" stroke="#666666"/>
<path d="M168.059 2.17163L80.0762 90.4921" stroke="#666666"/>
<path d="M172.975 2.17163L84.9922 90.4921" stroke="#666666"/>
<path d="M177.891 2.17163L89.9082 90.4921" stroke="#666666"/>
<path d="M182.807 2.17163L94.8242 90.4921" stroke="#666666"/>
<path d="M187.723 2.17163L99.7402 90.4921" stroke="#666666"/>
<path d="M192.637 2.17163L104.654 90.4921" stroke="#666666"/>
<path d="M197.553 2.17163L109.57 90.4921" stroke="#666666"/>
<path d="M202.469 2.17163L114.486 90.4921" stroke="#666666"/>
<path d="M207.385 2.17163L119.402 90.4921" stroke="#666666"/>
<path d="M212.301 2.17163L124.318 90.4921" stroke="#666666"/>
<path d="M217.215 2.17163L129.232 90.4921" stroke="#666666"/>
<path d="M222.131 2.17163L134.148 90.4921" stroke="#666666"/>
<path d="M227.047 2.17163L139.064 90.4921" stroke="#666666"/>
<path d="M231.963 2.17163L143.98 90.4921" stroke="#666666"/>
<path d="M236.879 2.17163L148.896 90.4921" stroke="#666666"/>
<path d="M241.793 2.17163L153.811 90.4921" stroke="#666666"/>
<path d="M246.709 2.17163L158.727 90.4921" stroke="#666666"/>
<rect x="53.7949" y="39.7891" width="106.423" height="20.7344" rx="5.5" stroke="black"/>
</g>
<path d="M224.84 66.0391L206.52 66.0391M224.84 73.5625L206.52 73.5625M224.84 77.3242L206.52 77.3242M224.84 81.0859L206.52 81.0859M224.84 84.8477L206.52 84.8477M224.84 88.6094L206.52 88.6094M224.84 69.8008L206.52 69.8008" stroke="black"/>
<path d="M7.74805 129.962C5.63574 129.962 4.125 128.814 4.08398 127.146H5.875C5.92285 127.939 6.71582 128.465 7.74805 128.458C8.83496 128.465 9.62109 127.863 9.62109 126.982C9.62109 126.093 8.85547 125.457 7.57031 125.45H6.68164V124.083H7.57031C8.62305 124.083 9.35449 123.495 9.34766 122.634C9.35449 121.8 8.72559 121.239 7.76172 121.239C6.83203 121.239 6.03223 121.759 5.99805 122.593H4.28906C4.33008 120.932 5.84082 119.79 7.77539 119.79C9.78516 119.79 11.084 121.021 11.0703 122.538C11.084 123.646 10.3457 124.445 9.26562 124.671V124.753C10.6602 124.938 11.4531 125.833 11.4395 127.077C11.4531 128.752 9.8877 129.962 7.74805 129.962ZM13.0938 129.825V119.927H19.4375V121.417H14.8711V124.124H19V125.614H14.8711V129.825H13.0938ZM35.0234 124.903V126.12H23.7578V124.903H28.6113V123.714H25.2207V118.984H26.7246V120.214H32.0566V118.984H33.5605V123.714H30.1426V124.903H35.0234ZM25.002 128.308V127.105H33.6426V131.042H32.125V128.308H25.002ZM26.7246 122.497H32.0566V121.349H26.7246V122.497ZM40.4648 120.446C40.458 122.073 41.4834 123.605 43.4453 124.22L42.6934 125.423C41.2715 124.951 40.2529 124.008 39.6924 122.798C39.1387 124.097 38.0996 125.129 36.6367 125.628L35.8711 124.439C37.8672 123.762 38.8994 122.121 38.8926 120.446V119.271H40.4648V120.446ZM37.7168 127.857V126.64H46.1523V131.042H44.6211V127.857H37.7168ZM44.6211 126.079V118.683H46.1523V126.079H44.6211ZM61.6289 118.696V127.72H60.1113V123.194H57.9238V121.964H60.1113V118.696H61.6289ZM51.252 125.054C53.2207 124.404 54.2734 122.791 54.2734 121.144V120.816H51.7031V119.585H58.375V120.816H55.8184V121.157C55.8184 122.641 56.8164 124.179 58.7305 124.808L57.9648 126.025C56.584 125.553 55.6064 124.609 55.0664 123.441C54.5264 124.739 53.4941 125.778 52.0312 126.284L51.252 125.054ZM53.5215 130.796V126.927H55.0391V129.566H61.9434V130.796H53.5215ZM68.0547 121.65C68.041 123.919 69.2373 126.189 71.2402 127.05L70.3379 128.267C68.916 127.61 67.877 126.305 67.3027 124.692C66.7354 126.428 65.6689 127.85 64.1719 128.554L63.2422 127.282C65.2998 126.394 66.5029 124.035 66.5098 121.65V119.681H68.0547V121.65ZM72.1289 131.056V118.683H73.6602V131.056H72.1289ZM85.7461 118.683V124.985H84.2422V118.683H85.7461ZM75.4648 123.782C77.4678 123.147 78.5205 121.561 78.5137 119.941V118.984H80.0859V119.941C80.0791 121.513 81.125 122.983 83.0801 123.577L82.3418 124.753C80.9062 124.309 79.8809 123.393 79.3203 122.217C78.7598 123.495 77.707 124.5 76.2305 124.972L75.4648 123.782ZM77.5703 126.735V125.56H85.7734V128.773H79.0879V129.73H86.1426V130.933H77.5977V127.638H84.2559V126.735H77.5703Z" fill="#151515"/>
</svg>
