<svg width="234" height="136" viewBox="0 0 234 136" fill="none" xmlns="http://www.w3.org/2000/svg">
<path d="M7.69727 6C7.69727 2.6863 10.3836 0 13.6973 0H189.198H191.535H218.008C221.322 0 224.008 2.68629 224.008 6V28.7055V66.9851C224.008 70.2988 221.322 72.9851 218.008 72.9851H13.6973C10.3836 72.9851 7.69727 70.2988 7.69727 66.9851V6Z" fill="white"/>
<path d="M54.9082 33.1278H228C231.314 33.1278 234 35.8141 234 39.1278V91.8309C234 95.1447 231.314 97.8309 228 97.8309H54.9082V33.1278Z" fill="white"/>
<rect y="66.7736" width="179.092" height="31.0575" rx="6" fill="white"/>
<path d="M121.821 96.5508H111.047V110.254H104.523C101.777 110.254 99.5508 112.5 99.5508 115.27V130.084C99.5508 132.854 101.777 135.1 104.523 135.1H229.026C231.772 135.1 233.998 132.854 233.998 130.084V115.27C233.998 112.5 231.772 110.254 229.026 110.254H121.821V96.5508Z" fill="white"/>
<path d="M67.3379 0.610471L67.3379 18.189L71.7103 18.189M87.286 0.610471L87.286 18.189L81.821 18.189M126.909 0.610471L126.909 18.189M167.078 0.610471L167.078 33.8111L170.631 33.8111M8.58643 33.2956L24.7091 33.2956L24.7091 35.2183M85.3734 96.7433L85.3734 74.7701M85.3734 68.1781L85.3734 65.4315L8.58643 65.4315M24.7091 40.1623L24.7091 35.2183M24.7091 65.4315L24.7091 48.9516M28.8081 18.189L24.7091 18.189L24.7091 16.8157M24.7091 14.0691L24.7091 16.8157M24.7091 0.610471L24.7091 7.4771M182.381 33.8111L185.933 33.8111M24.7091 28.6263L24.7091 35.2183M24.7091 22.5837L24.7091 16.8157M105.048 18.189L109.967 18.189M145.491 18.189L150.409 18.189M147.95 0.610471L147.95 6.10378M147.95 12.9704L147.95 18.1891M107.508 0.610471L107.508 6.10378M107.508 12.9704L107.508 18.1891M43.8375 18.189L48.7562 18.189M225.412 65.2031L225.412 97.1498M217.125 65.2031L217.125 88.8236" stroke="black"/>
<path d="M134.552 65.8136L208.309 65.8136L208.309 97.2046L134.552 97.2046L134.552 65.8136Z" fill="#CCCCCC" stroke="black"/>
<mask id="mask0_352_636" style="mask-type:alpha" maskUnits="userSpaceOnUse" x="134" y="65" width="75" height="33">
<path d="M134.552 65.8136L208.309 65.8136L208.309 97.2046L134.552 97.2046L134.552 65.8136Z" fill="#CCCCCC" stroke="black"/>
</mask>
<g mask="url(#mask0_352_636)">
<path d="M136.162 56.9078L48.6035 145.228" stroke="#666666"/>
<path d="M141.052 56.9078L53.4941 145.228" stroke="#666666"/>
<path d="M145.945 56.9078L58.3867 145.228" stroke="#666666"/>
<path d="M150.836 56.9078L63.2773 145.228" stroke="#666666"/>
<path d="M155.728 56.9078L68.1699 145.228" stroke="#666666"/>
<path d="M160.621 56.9078L73.0625 145.228" stroke="#666666"/>
<path d="M165.511 56.9078L77.9531 145.228" stroke="#666666"/>
<path d="M170.406 56.9078L82.8477 145.228" stroke="#666666"/>
<path d="M175.297 56.9078L87.7383 145.228" stroke="#666666"/>
<path d="M180.189 56.9078L92.6309 145.228" stroke="#666666"/>
<path d="M185.082 56.9078L97.5234 145.228" stroke="#666666"/>
<path d="M189.972 56.9078L102.414 145.228" stroke="#666666"/>
<path d="M194.865 56.9078L107.307 145.228" stroke="#666666"/>
<path d="M199.756 56.9078L112.197 145.228" stroke="#666666"/>
<path d="M204.648 56.9078L117.09 145.228" stroke="#666666"/>
<path d="M209.541 56.9078L121.982 145.228" stroke="#666666"/>
<path d="M214.431 56.9078L126.873 145.228" stroke="#666666"/>
<path d="M219.324 56.9078L131.766 145.228" stroke="#666666"/>
<path d="M224.215 56.9078L136.656 145.228" stroke="#666666"/>
<path d="M229.107 56.9078L141.549 145.228" stroke="#666666"/>
<path d="M234 56.9078L146.441 145.228" stroke="#666666"/>
<path d="M238.89 56.9078L151.332 145.228" stroke="#666666"/>
<path d="M243.785 56.9078L156.227 145.228" stroke="#666666"/>
<path d="M248.676 56.9078L161.117 145.228" stroke="#666666"/>
<path d="M253.568 56.9078L166.01 145.228" stroke="#666666"/>
<path d="M258.461 56.9078L170.902 145.228" stroke="#666666"/>
<path d="M263.351 56.9078L175.793 145.228" stroke="#666666"/>
<path d="M268.244 56.9078L180.686 145.228" stroke="#666666"/>
<path d="M273.134 56.9078L185.576 145.228" stroke="#666666"/>
<path d="M278.027 56.9078L190.469 145.228" stroke="#666666"/>
<path d="M282.92 56.9078L195.361 145.228" stroke="#666666"/>
<path d="M287.81 56.9078L200.252 145.228" stroke="#666666"/>
<path d="M292.703 56.9078L205.145 145.228" stroke="#666666"/>
<path d="M134.552 65.8136L208.309 65.8136L208.309 97.2046L134.552 97.2046L134.552 65.8136Z" stroke="black"/>
</g>
<path d="M225.412 65.6211L208.838 65.6211M225.412 73.2839L208.838 73.2839M225.412 77.1153L208.838 77.1153M225.412 80.9466L208.838 80.9466M225.412 84.778L208.838 84.778M225.412 88.6094L208.838 88.6094M225.412 69.4525L208.838 69.4525" stroke="black"/>
<mask id="path-43-inside-1_352_636" fill="white">
<path fill-rule="evenodd" clip-rule="evenodd" d="M7.69742 6C7.69742 2.6863 10.3837 0 13.6974 0H186.79V33.1278H228C231.314 33.1278 234 35.8141 234 39.1278V91.8309C234 95.1446 231.314 97.8309 228 97.8309H173.133L173.092 97.8311H122.646V110.254H227.998C231.312 110.254 233.998 112.94 233.998 116.254V129.1C233.998 132.414 231.312 135.1 227.998 135.1H105.551C102.237 135.1 99.5508 132.414 99.5508 129.1V116.254C99.5508 112.94 102.237 110.254 105.551 110.254H110.33V97.8311H5.99999C2.68629 97.8311 0 95.1448 0 91.8311V72.7736C0 69.4599 2.68629 66.7736 6 66.7736H7.69742V6Z"/>
</mask>
<path d="M186.79 0H187.79V-1H186.79V0ZM186.79 33.1278H185.79V34.1278H186.79V33.1278ZM173.133 97.8309L173.133 96.8309L173.13 96.8309L173.133 97.8309ZM173.092 97.8311L173.092 98.8311L173.095 98.8311L173.092 97.8311ZM122.646 97.8311V96.8311H121.646V97.8311H122.646ZM122.646 110.254H121.646V111.254H122.646V110.254ZM110.33 110.254V111.254H111.33V110.254H110.33ZM110.33 97.8311H111.33V96.8311H110.33V97.8311ZM7.69742 66.7736V67.7736H8.69742V66.7736H7.69742ZM13.6974 -1C9.83142 -1 6.69742 2.13401 6.69742 6H8.69742C8.69742 3.23858 10.936 1 13.6974 1V-1ZM186.79 -1H13.6974V1H186.79V-1ZM187.79 33.1278V0H185.79V33.1278H187.79ZM228 32.1278H186.79V34.1278H228V32.1278ZM235 39.1278C235 35.2618 231.866 32.1278 228 32.1278V34.1278C230.762 34.1278 233 36.3664 233 39.1278H235ZM235 91.8309V39.1278H233V91.8309H235ZM228 98.8309C231.866 98.8309 235 95.6969 235 91.8309H233C233 94.5924 230.762 96.8309 228 96.8309V98.8309ZM173.133 98.8309H228V96.8309H173.133V98.8309ZM173.095 98.8311L173.136 98.8309L173.13 96.8309L173.089 96.8311L173.095 98.8311ZM122.646 98.8311H173.092V96.8311H122.646V98.8311ZM121.646 97.8311V110.254H123.646V97.8311H121.646ZM227.998 109.254H122.646V111.254H227.998V109.254ZM234.998 116.254C234.998 112.388 231.864 109.254 227.998 109.254V111.254C230.76 111.254 232.998 113.493 232.998 116.254H234.998ZM234.998 129.1V116.254H232.998V129.1H234.998ZM227.998 136.1C231.864 136.1 234.998 132.966 234.998 129.1H232.998C232.998 131.861 230.76 134.1 227.998 134.1V136.1ZM105.551 136.1H227.998V134.1H105.551V136.1ZM98.5508 129.1C98.5508 132.966 101.685 136.1 105.551 136.1V134.1C102.789 134.1 100.551 131.861 100.551 129.1H98.5508ZM98.5508 116.254V129.1H100.551V116.254H98.5508ZM105.551 109.254C101.685 109.254 98.5508 112.388 98.5508 116.254H100.551C100.551 113.493 102.789 111.254 105.551 111.254V109.254ZM110.33 109.254H105.551V111.254H110.33V109.254ZM111.33 110.254V97.8311H109.33V110.254H111.33ZM5.99999 98.8311H110.33V96.8311H5.99999V98.8311ZM-1 91.8311C-1 95.6971 2.134 98.8311 5.99999 98.8311V96.8311C3.23857 96.8311 1 94.5925 1 91.8311H-1ZM-1 72.7736V91.8311H1V72.7736H-1ZM6 65.7736C2.13401 65.7736 -1 68.9076 -1 72.7736H1C1 70.0121 3.23858 67.7736 6 67.7736V65.7736ZM7.69742 65.7736H6V67.7736H7.69742V65.7736ZM6.69742 6V66.7736H8.69742V6H6.69742Z" fill="black" mask="url(#path-43-inside-1_352_636)"/>
<path d="M186.031 0.5H218.007C221.045 0.5 223.507 2.96243 223.507 6V31.4717V33.9425H186.031V0.5Z" fill="#CCCCCC" stroke="black"/>
<mask id="mask1_352_636" style="mask-type:alpha" maskUnits="userSpaceOnUse" x="185" y="0" width="40" height="35">
<path d="M186.029 0.5H218.005C221.043 0.5 223.505 2.96243 223.505 6V31.4717V33.9425H186.029V0.5Z" fill="#CCCCCC" stroke="black"/>
</mask>
<g mask="url(#mask1_352_636)">
<path d="M188.849 -22.8411L101.291 65.4795" stroke="#666666"/>
<path d="M193.74 -22.8411L106.182 65.4795" stroke="#666666"/>
<path d="M198.633 -22.8411L111.074 65.4795" stroke="#666666"/>
<path d="M203.525 -22.8411L115.967 65.4795" stroke="#666666"/>
<path d="M208.416 -22.8411L120.857 65.4795" stroke="#666666"/>
<path d="M213.308 -22.8411L125.75 65.4795" stroke="#666666"/>
<path d="M218.199 -22.8411L130.641 65.4795" stroke="#666666"/>
<path d="M223.092 -22.8411L135.533 65.4795" stroke="#666666"/>
<path d="M227.984 -22.8411L140.426 65.4795" stroke="#666666"/>
<path d="M232.875 -22.8411L145.316 65.4795" stroke="#666666"/>
<path d="M237.769 -22.8411L150.211 65.4795" stroke="#666666"/>
<path d="M242.66 -22.8411L155.102 65.4795" stroke="#666666"/>
<path d="M247.552 -22.8411L159.994 65.4795" stroke="#666666"/>
<path d="M252.445 -22.8411L164.887 65.4795" stroke="#666666"/>
<path d="M257.336 -22.8411L169.777 65.4795" stroke="#666666"/>
<path d="M262.228 -22.8411L174.67 65.4795" stroke="#666666"/>
<path d="M267.119 -22.8411L179.561 65.4795" stroke="#666666"/>
<path d="M272.011 -22.8411L184.453 65.4795" stroke="#666666"/>
<path d="M276.904 -22.8411L189.346 65.4795" stroke="#666666"/>
<path d="M281.795 -22.8411L194.236 65.4795" stroke="#666666"/>
<path d="M286.687 -22.8411L199.129 65.4795" stroke="#666666"/>
<path d="M291.578 -22.8411L204.02 65.4795" stroke="#666666"/>
<path d="M296.47 -22.8411L208.912 65.4795" stroke="#666666"/>
<path d="M301.363 -22.8411L213.805 65.4795" stroke="#666666"/>
<path d="M306.254 -22.8411L218.695 65.4795" stroke="#666666"/>
<path d="M311.148 -22.8411L223.59 65.4795" stroke="#666666"/>
<path d="M186.029 0.5H218.005C221.043 0.5 223.505 2.96243 223.505 6V31.4717V33.9425H186.029V0.5Z" stroke="black"/>
</g>
<path d="M2.80859 131V129.715L6.30859 126.338C7.30664 125.34 7.82617 124.752 7.82617 123.918C7.82617 122.995 7.09473 122.414 6.13086 122.414C5.1123 122.414 4.45605 123.05 4.46289 124.055H2.76758C2.76074 122.182 4.16895 120.965 6.14453 120.965C8.16797 120.965 9.52832 122.175 9.53516 123.836C9.52832 124.95 8.99512 125.853 7.04688 127.691L5.2832 129.441V129.51H9.68555V131H2.80859ZM11.3398 131V121.102H17.6836V122.592H13.1172V125.299H17.2461V126.789H13.1172V131H11.3398ZM28.5938 120.883V126.762H22.6328V120.883H28.5938ZM24.123 131.889V127.855H25.6543V130.658H32.6406V131.889H24.123ZM24.1367 125.545H27.0898V122.1H24.1367V125.545ZM30.7676 128.689V119.871H32.2988V128.689H30.7676ZM45.3691 125.928V127.158H34.1035V125.928H38.9707V124.205H40.4746V125.928H45.3691ZM34.7188 123.727C37.2686 123.405 38.9434 122.004 38.9434 120.527V120.062H40.4883V120.527C40.4883 122.038 42.1494 123.405 44.7266 123.727L44.1387 124.916C42.1152 124.608 40.4951 123.692 39.709 122.394C38.916 123.686 37.3027 124.608 35.2656 124.916L34.7188 123.727ZM35.3477 129.332V128.143H43.9883V132.217H42.4707V129.332H35.3477ZM59.875 119.871V128.895H58.3574V124.369H56.1699V123.139H58.3574V119.871H59.875ZM49.498 126.229C51.4668 125.579 52.5195 123.966 52.5195 122.318V121.99H49.9492V120.76H56.6211V121.99H54.0645V122.332C54.0645 123.815 55.0625 125.354 56.9766 125.982L56.2109 127.199C54.8301 126.728 53.8525 125.784 53.3125 124.615C52.7725 125.914 51.7402 126.953 50.2773 127.459L49.498 126.229ZM51.7676 131.971V128.102H53.2852V130.74H60.1895V131.971H51.7676ZM66.3008 122.824C66.2871 125.094 67.4834 127.363 69.4863 128.225L68.584 129.441C67.1621 128.785 66.123 127.479 65.5488 125.866C64.9814 127.603 63.915 129.024 62.418 129.729L61.4883 128.457C63.5459 127.568 64.749 125.21 64.7559 122.824V120.855H66.3008V122.824ZM70.375 132.23V119.857H71.9062V132.23H70.375ZM83.9922 119.857V126.16H82.4883V119.857H83.9922ZM73.7109 124.957C75.7139 124.321 76.7666 122.735 76.7598 121.115V120.158H78.332V121.115C78.3252 122.688 79.3711 124.157 81.3262 124.752L80.5879 125.928C79.1523 125.483 78.127 124.567 77.5664 123.392C77.0059 124.67 75.9531 125.675 74.4766 126.146L73.7109 124.957ZM75.8164 127.91V126.734H84.0195V129.947H77.334V130.904H84.3887V132.107H75.8438V128.812H82.502V127.91H75.8164Z" fill="#151515"/>
</svg>
