<svg width="86" height="81" viewBox="0 0 86 81" fill="none" xmlns="http://www.w3.org/2000/svg">
<path d="M20.1505 65.9531V78.1348H19.0704V65.9531H20.1505ZM10.5802 71.1348C10.587 68.5508 11.8721 66.9033 13.6837 66.8965C15.4884 66.9033 16.794 68.5508 16.7872 71.1348C16.794 73.7256 15.4884 75.3662 13.6837 75.3594C11.8721 75.3662 10.587 73.7256 10.5802 71.1348ZM11.6192 71.1348C11.6192 73.1104 12.4669 74.4092 13.6837 74.4023C14.9073 74.4092 15.7481 73.1104 15.7481 71.1348C15.7481 69.1592 14.9073 67.8604 13.6837 67.8535C12.4669 67.8604 11.6192 69.1592 11.6192 71.1348ZM33.1765 71.9688V72.8301H22.0886V71.9688H27.1062V70.5469H23.4968V66.5273H31.7956V67.3887H24.5495V69.6719H31.8777V70.5469H28.1452V71.9688H33.1765ZM23.4284 75.9062C23.4216 74.5186 25.0007 73.7256 27.6257 73.7188C30.2302 73.7256 31.7956 74.5186 31.8093 75.9062C31.7956 77.3076 30.2302 78.0938 27.6257 78.1074C25.0007 78.0938 23.4216 77.3076 23.4284 75.9062ZM24.5222 75.9062C24.5085 76.7607 25.6775 77.2529 27.6257 77.2461C29.5534 77.2529 30.7224 76.7607 30.7292 75.9062C30.7224 75.0654 29.5534 74.5664 27.6257 74.5664C25.6775 74.5664 24.5085 75.0654 24.5222 75.9062ZM35.3334 77.082C34.8548 77.0752 34.4447 76.6787 34.4584 76.1934C34.4447 75.7148 34.8548 75.3184 35.3334 75.3184C35.8187 75.3184 36.2152 75.7148 36.2084 76.1934C36.2152 76.6787 35.8187 77.0752 35.3334 77.082ZM34.4584 70.6973C34.4447 70.2188 34.8548 69.8223 35.3334 69.8223C35.8187 69.8223 36.2152 70.2188 36.2084 70.6973C36.2152 71.1826 35.8187 71.5791 35.3334 71.5859C34.8548 71.5791 34.4447 71.1826 34.4584 70.6973ZM50.653 71.8047V72.6934H42.2584V67.0879H50.5299V67.9766H43.3248V71.8047H50.653ZM40.8366 76.4531V75.5508H51.9655V76.4531H40.8366ZM57.7591 67.2793V71.5312H54.2454V74.293C55.6468 74.2861 56.9661 74.2314 58.5384 73.9648L58.6341 74.8398C56.9046 75.1406 55.5305 75.1953 53.9993 75.1953H53.2063V70.6426H56.72V68.1816H53.179V67.2793H57.7591ZM59.386 77.4785V66.2266H60.3704V70.7656H62.1614V65.9531H63.1868V78.1074H62.1614V71.6543H60.3704V77.4785H59.386ZM74.3398 67.252V68.4688C74.3398 70 74.3398 71.7295 73.8886 74.375L72.7948 74.2656C73.287 71.7773 73.287 69.959 73.287 68.4688V68.1406H65.9589V67.252H74.3398ZM64.7558 76.3164V75.4277H75.83V76.3164H64.7558Z" fill="#666666"/>
<path d="M27.4342 20.8897L23.3232 16.7787L27.4342 12.6667" stroke="#040000" stroke-linecap="round" stroke-linejoin="round"/>
<path d="M48.1729 12.6667L52.2859 16.7757L48.1729 20.8897" stroke="#040000" stroke-linecap="round" stroke-linejoin="round"/>
<path d="M62.882 60L63.591 37.65V36.942C63.5925 36.4757 63.502 36.0136 63.3246 35.5823C63.1473 35.151 62.8865 34.759 62.5573 34.4287C62.2281 34.0984 61.8369 33.8363 61.4062 33.6575C60.9756 33.4786 60.5138 33.3866 60.0475 33.3866C59.5811 33.3866 59.1194 33.4786 58.6887 33.6575C58.258 33.8363 57.8668 34.0984 57.5376 34.4287C57.2084 34.759 56.9476 35.151 56.7703 35.5823C56.5929 36.0136 56.5024 36.4757 56.504 36.942V33.842C56.5008 32.9043 56.1261 32.006 55.4619 31.3441C54.7977 30.6821 53.8982 30.3104 52.9604 30.3104C52.0227 30.3104 51.1232 30.6821 50.459 31.3441C49.7948 32.006 49.4201 32.9043 49.417 33.842V30.743C49.4189 30.2765 49.3286 29.8142 49.1515 29.3827C48.9743 28.9512 48.7136 28.5589 48.3844 28.2283C48.0552 27.8978 47.664 27.6355 47.2332 27.4565C46.8024 27.2776 46.3405 27.1854 45.874 27.1854C45.4075 27.1854 44.9456 27.2776 44.5148 27.4565C44.084 27.6355 43.6927 27.8978 43.3636 28.2283C43.0344 28.5589 42.7737 28.9512 42.5965 29.3827C42.4193 29.8142 42.3291 30.2765 42.331 30.743V14.01C42.3279 13.0723 41.9531 12.174 41.2889 11.5121C40.6248 10.8501 39.7253 10.4784 38.7875 10.4784C37.8498 10.4784 36.9503 10.8501 36.2861 11.5121C35.6219 12.174 35.2472 13.0723 35.244 14.01V42.621L28.958 36.335L28.457 35.834C27.7925 35.1695 26.8913 34.7962 25.9515 34.7962C25.0118 34.7962 24.1105 35.1695 23.446 35.834C22.7815 36.4985 22.4082 37.3998 22.4082 38.3395C22.4082 39.2793 22.7815 40.1805 23.446 40.845L23.947 41.346L35.244 52.643L35.953 60" stroke="#040000" stroke-linecap="round" stroke-linejoin="round"/>
</svg>
