<svg width="52" height="53" viewBox="0 0 52 53" fill="none" xmlns="http://www.w3.org/2000/svg">
<path d="M15.555 37.8828V38.7715H14.3109V42.6611C14.8714 42.6201 15.4252 42.5723 15.9515 42.5039L16.0062 43.3242C13.6341 43.6865 10.8724 43.7275 8.89684 43.7207L8.76012 42.8184C9.24547 42.8184 9.77184 42.8184 10.3324 42.8115V38.7715H9.10191V37.8828H15.555ZM10.7015 46.8926C10.6947 45.5049 12.2328 44.7119 14.7757 44.7188C17.3187 44.7119 18.85 45.5049 18.85 46.8926C18.85 48.2803 17.3187 49.0801 14.7757 49.0801C12.2328 49.0801 10.6947 48.2803 10.7015 46.8926ZM11.3714 42.791C11.9935 42.7773 12.6361 42.7568 13.2718 42.7227V38.7715H11.3714V42.791ZM11.7679 46.8926C11.7611 47.7402 12.9027 48.2324 14.7757 48.2324C16.642 48.2324 17.7836 47.7402 17.7836 46.8926C17.7836 46.0586 16.642 45.5527 14.7757 45.5527C12.9027 45.5527 11.7611 46.0586 11.7679 46.8926ZM15.6781 42.2031V41.3145H17.7289V40.0293H15.6781V39.1406H17.7289V36.9531H18.8089V44.459H17.7289V42.2031H15.6781ZM26.8447 38.0195V39.0996H29.6885V36.9668H30.7686V45.8398H29.6885V42.5996H26.8447V43.6934H21.2666V38.0195H26.8447ZM22.333 42.832H25.792V38.9082H22.333V42.832ZM22.9072 48.8477V45.0469H23.9873V47.9453H31.042V48.8477H22.9072ZM26.8447 41.7109H29.6885V40.002H26.8447V41.7109ZM42.4684 42.6543V43.5293H38.7086V46.6738H43.7809V47.5762H32.652V46.6738H37.6559V43.5293H34.0739V37.9512H42.3454V38.8262H35.1539V42.6543H42.4684Z" fill="#666666"/>
<g clip-path="url(#clip0_265_3054)">
<rect width="30" height="28" transform="translate(11.5)" fill="white"/>
<path fill-rule="evenodd" clip-rule="evenodd" d="M27.3047 15.8463H34.3047V16.8463H28.3047V25.3463H39.8047V3.34631H28.3047V10.3463H27.3047V3.34631H12.8047V25.3463H27.3047V15.8463ZM11.8047 2.34631V26.3463H40.8047V2.34631H11.8047Z" fill="black"/>
</g>
<defs>
<clipPath id="clip0_265_3054">
<rect width="30" height="28" fill="white" transform="translate(11.5)"/>
</clipPath>
</defs>
</svg>
