<svg width="53" height="53" viewBox="0 0 53 53" fill="none" xmlns="http://www.w3.org/2000/svg">
<path d="M8.90207 48.1367C6.93332 48.1367 5.51828 47.084 5.45676 45.5117H6.7009C6.76926 46.4551 7.70578 47.043 8.8884 47.043C10.1941 47.043 11.1374 46.3389 11.1443 45.3066C11.1374 44.2266 10.2761 43.4678 8.73801 43.4609H7.93137V42.3809H8.73801C9.94113 42.3809 10.782 41.7041 10.7751 40.6855C10.782 39.6943 10.0573 39.0381 8.92941 39.0312C7.86984 39.0381 6.90598 39.6191 6.85129 40.5898H5.66184C5.72336 39.0176 7.18625 37.9648 8.94309 37.9648C10.8298 37.9648 11.9782 39.2021 11.9646 40.6172C11.9782 41.7451 11.322 42.5654 10.2829 42.8594V42.9277C11.5749 43.126 12.3542 44.0488 12.3474 45.3066C12.3542 46.9336 10.8777 48.1367 8.90207 48.1367ZM17.225 48H14.1488V38.1016H17.348C20.2396 38.1016 21.9418 39.9541 21.9418 43.0371C21.9418 46.127 20.2396 48 17.225 48ZM15.3793 46.9062H17.1429C19.5697 46.9062 20.7386 45.4365 20.7386 43.0371C20.7386 40.6445 19.5697 39.1953 17.266 39.1953H15.3793V46.9062ZM37.5075 46.6465V47.5488H26.3786V46.6465H31.3825V43.6797H27.6911V37.9785H36.1266V43.6797H32.4352V46.6465H37.5075ZM28.7438 42.8184H35.0875V38.8398H28.7438V42.8184ZM48.1546 42.8047V43.6934H39.76V38.0879H48.0315V38.9766H40.8264V42.8047H48.1546ZM38.3382 47.4531V46.5508H49.4671V47.4531H38.3382Z" fill="#666666"/>
<g clip-path="url(#clip0_265_3048)">
<rect width="30" height="28" transform="translate(11)" fill="white"/>
<path fill-rule="evenodd" clip-rule="evenodd" d="M20.7277 -0.214844L40.3047 6.99771V21.102L30.8877 27.9032L11.3047 21.2038V6.5907L20.7277 -0.214844ZM20.8816 0.907556L12.8588 6.70185L30.7277 13.2852L38.7506 7.49087L20.8816 0.907556ZM39.3047 8.32423L31.3047 14.102V26.3685L39.3047 20.5907V8.32423ZM30.3047 26.6469V14.195L12.3047 7.56342V20.489L30.3047 26.6469Z" fill="#010101"/>
<path d="M20.0886 14C18.5511 14 17.3047 14.8468 17.3047 16.3843V23.0017L23.9807 25.2856V18.2652C23.9807 15.8837 22.4516 14 20.0886 14Z" fill="black"/>
</g>
<defs>
<clipPath id="clip0_265_3048">
<rect width="30" height="28" fill="white" transform="translate(11)"/>
</clipPath>
</defs>
</svg>
