<svg width="86" height="81" viewBox="0 0 86 81" fill="none" xmlns="http://www.w3.org/2000/svg">
<path d="M14.2852 68.25C14.2852 69.9453 15.5157 71.5449 17.293 72.1875L16.6915 73.0215C15.3585 72.4951 14.2921 71.4424 13.7725 70.1162C13.2598 71.5859 12.1524 72.748 10.7169 73.3223L10.1427 72.4473C11.9678 71.7773 13.2257 70.0752 13.2325 68.209V66.7051H14.2852V68.25ZM12.3438 77.8477V74.0332H13.4239V76.9453H20.4786V77.8477H12.3438ZM16.418 69.7266V68.8242H19.1251V65.9668H20.2052V75.0723H19.1251V69.7266H16.418ZM27.3523 66.8418V67.7441H23.6609V69.2617H27.2155V70.1094H23.6609V71.791C25.4314 71.7842 26.5388 71.7158 27.8445 71.4629L27.9538 72.3516C26.5251 72.6318 25.3767 72.6865 23.4011 72.6934H22.6355V66.8418H27.3523ZM24.2214 74.8398V73.9648H32.4109V78.1074H31.3581V74.8398H24.2214ZM28.6784 73.2539V66.1992H29.6765V69.1387H31.3855V65.9668H32.4109V73.3359H31.3855V70.0137H29.6765V73.2539H28.6784ZM35.3334 77.082C34.8548 77.0752 34.4447 76.6787 34.4584 76.1934C34.4447 75.7148 34.8548 75.3184 35.3334 75.3184C35.8187 75.3184 36.2152 75.7148 36.2084 76.1934C36.2152 76.6787 35.8187 77.0752 35.3334 77.082ZM34.4584 70.6973C34.4447 70.2188 34.8548 69.8223 35.3334 69.8223C35.8187 69.8223 36.2152 70.2188 36.2084 70.6973C36.2152 71.1826 35.8187 71.5791 35.3334 71.5859C34.8548 71.5791 34.4447 71.1826 34.4584 70.6973ZM46.1002 66.7051V67.5801H42.4088V69.002H45.9635V69.8496H42.4088V71.3945C44.1793 71.3877 45.2868 71.3193 46.5924 71.0664L46.7018 71.9551C45.2731 72.2148 44.1246 72.2695 42.1491 72.2832H41.3834V66.7051H46.1002ZM43.1471 77.9434V73.3496H44.2135V74.7031H50.1061V73.3496H51.1588V77.9434H43.1471ZM44.2135 77.0684H50.1061V75.5645H44.2135V77.0684ZM47.4264 72.7617V66.1992H48.4245V68.9062H50.1334V65.9668H51.1588V72.8574H50.1334V69.8086H48.4245V72.7617H47.4264ZM62.2024 65.9531V70.9707H64.2395V71.8594H62.2024V78.1074H61.136V65.9531H62.2024ZM52.7278 68.7969V67.9082H55.8587V66.1035H56.9251V67.9082H59.9602V68.7969H52.7278ZM53.4251 72.5977C53.4182 70.957 54.6761 69.8086 56.4055 69.8086C58.1214 69.8086 59.3723 70.957 59.386 72.5977C59.3723 74.2451 58.1214 75.3867 56.4055 75.3867C54.6761 75.3867 53.4182 74.2451 53.4251 72.5977ZM54.4505 72.5977C54.4436 73.7051 55.2708 74.4844 56.4055 74.4707C57.5266 74.4844 58.347 73.7051 58.3606 72.5977C58.347 71.4971 57.5266 70.7041 56.4055 70.7109C55.2708 70.7041 54.4436 71.4971 54.4505 72.5977ZM74.8046 65.9531V78.1074H73.7245V65.9531H74.8046ZM64.9062 74.9492C68.1943 73.3906 69.8759 71.0596 70.1152 68.1543H65.4667V67.2793H71.2089C71.1952 70.7725 69.5683 73.8691 65.4941 75.8242L64.9062 74.9492Z" fill="#666666"/>
<path d="M30.9316 20.6858C35.6261 20.6858 39.4316 16.8802 39.4316 12.1858C39.4316 7.49137 35.6261 3.68579 30.9316 3.68579C26.2372 3.68579 22.4316 7.49137 22.4316 12.1858C22.4316 16.8802 26.2372 20.6858 30.9316 20.6858Z" stroke="#040000" stroke-linecap="round" stroke-linejoin="round"/>
<path d="M30.9316 23.6858C37.2829 23.6858 42.4316 18.5371 42.4316 12.1858C42.4316 5.83452 37.2829 0.685791 30.9316 0.685791C24.5804 0.685791 19.4316 5.83452 19.4316 12.1858C19.4316 18.5371 24.5804 23.6858 30.9316 23.6858Z" stroke="#040000" stroke-linecap="round" stroke-linejoin="round"/>
<path d="M56.0089 59.3143L56.7179 36.9643V36.2563C56.7195 35.79 56.629 35.3279 56.4516 34.8966C56.2742 34.4653 56.0135 34.0733 55.6843 33.743C55.3551 33.4127 54.9639 33.1506 54.5332 32.9718C54.1025 32.793 53.6408 32.7009 53.1744 32.7009C52.7081 32.7009 52.2463 32.793 51.8156 32.9718C51.3849 33.1506 50.9938 33.4127 50.6646 33.743C50.3354 34.0733 50.0746 34.4653 49.8972 34.8966C49.7198 35.3279 49.6293 35.79 49.6309 36.2563V33.1563C49.6278 32.2186 49.253 31.3204 48.5888 30.6584C47.9246 29.9964 47.0251 29.6247 46.0874 29.6247C45.1497 29.6247 44.2502 29.9964 43.586 30.6584C42.9218 31.3204 42.5471 32.2186 42.5439 33.1563V30.0573C42.5458 29.5908 42.4556 29.1286 42.2784 28.697C42.1012 28.2655 41.8406 27.8732 41.5114 27.5426C41.1822 27.2121 40.791 26.9498 40.3602 26.7708C39.9293 26.5919 39.4674 26.4998 39.0009 26.4998C38.5344 26.4998 38.0725 26.5919 37.6417 26.7708C37.2109 26.9498 36.8197 27.2121 36.4905 27.5426C36.1613 27.8732 35.9007 28.2655 35.7235 28.697C35.5463 29.1286 35.456 29.5908 35.458 30.0573V13.3243C35.4548 12.3866 35.0801 11.4884 34.4159 10.8264C33.7517 10.1644 32.8522 9.79272 31.9145 9.79272C30.9767 9.79272 30.0772 10.1644 29.413 10.8264C28.7488 11.4884 28.3741 12.3866 28.371 13.3243V41.9353L22.085 35.6493L21.584 35.1483C20.9195 34.4838 20.0182 34.1105 19.0785 34.1105C18.1387 34.1105 17.2375 34.4838 16.573 35.1483C15.9085 35.8128 15.5352 36.7141 15.5352 37.6538C15.5352 38.5936 15.9085 39.4948 16.573 40.1593L17.074 40.6603L28.371 51.9573L29.08 59.3143" fill="#FBFBFB"/>
<path d="M56.0089 59.3143L56.7179 36.9643V36.2563C56.7195 35.79 56.629 35.3279 56.4516 34.8966C56.2742 34.4653 56.0135 34.0733 55.6843 33.743C55.3551 33.4127 54.9639 33.1506 54.5332 32.9718C54.1025 32.793 53.6408 32.7009 53.1744 32.7009C52.7081 32.7009 52.2463 32.793 51.8156 32.9718C51.3849 33.1506 50.9938 33.4127 50.6646 33.743C50.3354 34.0733 50.0746 34.4653 49.8972 34.8966C49.7198 35.3279 49.6293 35.79 49.6309 36.2563V33.1563C49.6278 32.2186 49.253 31.3204 48.5888 30.6584C47.9246 29.9964 47.0251 29.6247 46.0874 29.6247C45.1497 29.6247 44.2502 29.9964 43.586 30.6584C42.9218 31.3204 42.5471 32.2186 42.5439 33.1563V30.0573C42.5458 29.5908 42.4556 29.1286 42.2784 28.697C42.1012 28.2655 41.8406 27.8732 41.5114 27.5426C41.1822 27.2121 40.791 26.9498 40.3602 26.7708C39.9293 26.5919 39.4674 26.4998 39.0009 26.4998C38.5344 26.4998 38.0725 26.5919 37.6417 26.7708C37.2109 26.9498 36.8197 27.2121 36.4905 27.5426C36.1613 27.8732 35.9007 28.2655 35.7235 28.697C35.5463 29.1286 35.456 29.5908 35.458 30.0573V13.3243C35.4548 12.3866 35.0801 11.4884 34.4159 10.8264C33.7517 10.1644 32.8522 9.79272 31.9145 9.79272C30.9767 9.79272 30.0772 10.1644 29.413 10.8264C28.7488 11.4884 28.3741 12.3866 28.371 13.3243V41.9353L22.085 35.6493L21.584 35.1483C20.9195 34.4838 20.0182 34.1105 19.0785 34.1105C18.1387 34.1105 17.2375 34.4838 16.573 35.1483C15.9085 35.8128 15.5352 36.7141 15.5352 37.6538C15.5352 38.5936 15.9085 39.4948 16.573 40.1593L17.074 40.6603L28.371 51.9573L29.08 59.3143" stroke="#040000" stroke-linecap="round" stroke-linejoin="round"/>
</svg>
