<svg width="86" height="81" viewBox="0 0 86 81" fill="none" xmlns="http://www.w3.org/2000/svg">
<path d="M11.3696 65.9668V69.6445H13.1879V70.5469H11.3696V74.1152H10.2895V65.9668H11.3696ZM1.8266 72.8711C2.79731 72.8711 3.93207 72.8711 5.12152 72.8369V71.9414C3.70649 71.8115 2.79047 71.1621 2.79731 70.1504C2.79047 69.043 3.93207 68.3594 5.64106 68.3594C7.36371 68.3594 8.48481 69.043 8.49848 70.1504C8.48481 71.1553 7.59613 71.8047 6.18793 71.9414V72.7959C7.3227 72.7412 8.47113 72.6455 9.53754 72.4883L9.63324 73.2676C6.99457 73.7324 4.0893 73.7529 1.94965 73.7461L1.8266 72.8711ZM2.12738 67.8945V67.0742H5.12152V65.8574H6.18793V67.0742H9.1684V67.8945H2.12738ZM3.31684 75.5781V74.7168H11.3696V78.1074H10.2895V75.5781H3.31684ZM3.8227 70.1504C3.81586 70.7861 4.51996 71.2168 5.64106 71.2031C6.76215 71.2168 7.47309 70.7861 7.47309 70.1504C7.47309 69.5078 6.76215 69.1113 5.64106 69.125C4.51996 69.1113 3.81586 69.5078 3.8227 70.1504ZM24.2315 65.9531V78.1074H23.2061V71.7363H21.4151V77.4785H20.4307V66.2266H21.4151V70.8477H23.2061V65.9531H24.2315ZM14.2921 75.0996V67.4434H18.8448V68.332H15.3585V74.1836C17.0333 74.1768 18.1886 74.1152 19.5421 73.8418L19.6378 74.7441C18.1749 75.0449 16.9376 75.0928 15.0714 75.0996H14.2921ZM29.779 66.6367L26.5798 78.4902H25.5134L28.6989 66.6367H29.779ZM41.4105 72.0781V72.9531H36.3929V74.3477H40.0433V78.0664H38.9632V75.2227H31.5668V74.3477H35.3402V72.9531H30.3363V72.0781H41.4105ZM30.9925 70.5742C33.2689 70.3486 35.1966 69.4053 35.2855 68.0176H31.4847V67.1562H35.3402V65.8984H36.3929V67.1562H40.2894V68.0176H36.4613C36.5365 69.4053 38.4574 70.3486 40.7543 70.5742L40.3988 71.3945C38.3959 71.1826 36.6048 70.4512 35.8734 69.2139C35.1283 70.4512 33.3373 71.1826 31.348 71.3945L30.9925 70.5742ZM53.4248 75.6328V76.5215H42.2959V75.6328H47.2725V72.6523H48.3252V75.6328H53.4248ZM42.7334 71.9004C44.8594 71.5381 47.2246 69.7607 47.2314 67.7168V66.7871H48.3525V67.7168C48.3594 69.7471 50.7588 71.5381 52.8779 71.9004L52.3994 72.7891C50.5469 72.4062 48.5918 71.1553 47.8057 69.4053C47.0059 71.1484 45.0713 72.4062 43.2119 72.7891L42.7334 71.9004ZM55.5407 77.082C55.0621 77.0752 54.652 76.6787 54.6657 76.1934C54.652 75.7148 55.0621 75.3184 55.5407 75.3184C56.026 75.3184 56.4225 75.7148 56.4157 76.1934C56.4225 76.6787 56.026 77.0752 55.5407 77.082ZM54.6657 70.6973C54.652 70.2188 55.0621 69.8223 55.5407 69.8223C56.026 69.8223 56.4225 70.2188 56.4157 70.6973C56.4225 71.1826 56.026 71.5791 55.5407 71.5859C55.0621 71.5791 54.652 71.1826 54.6657 70.6973ZM71.079 65.9668V74.9355H70.0126V65.9668H71.079ZM61.2489 72.2012C61.7343 72.2012 62.2607 72.1943 62.8075 72.1875V67.9902H61.5907V67.1152H68.1669V67.9902H66.9364V72.0371C67.5654 71.9893 68.1806 71.9346 68.7685 71.8594L68.8505 72.6797C66.3554 73.0625 63.4911 73.0967 61.3857 73.0898L61.2489 72.2012ZM63.1493 77.8477V74.1152H64.2294V76.9453H71.3661V77.8477H63.1493ZM63.8466 72.1738C64.5165 72.1602 65.207 72.1328 65.8974 72.0986V67.9902H63.8466V72.1738ZM83.025 65.9531V78.1074H81.9449V65.9531H83.025ZM73.2496 74.9219C75.0543 74.1016 76.4351 72.0508 76.4351 69.918V68.9473H73.5777V68.0723H76.4214V66.1855H77.4879V68.0723H80.3179V68.9473H77.4879V69.918C77.4879 71.9551 78.9097 73.9238 80.7418 74.7031L80.1402 75.5371C78.732 74.915 77.5494 73.6025 76.982 71.9961C76.4351 73.6914 75.2593 75.0928 73.8511 75.7559L73.2496 74.9219Z" fill="#666666"/>
<path d="M19.1411 43.4353H13.3271V37.6213" stroke="#040000" stroke-linecap="round" stroke-linejoin="round"/>
<path d="M47.0098 3.93829L52.8238 3.93628V9.75229" stroke="#040000" stroke-linecap="round" stroke-linejoin="round"/>
<path d="M18.8682 18.0593L24.6822 18.0563V23.8733" stroke="#040000" stroke-linecap="round" stroke-linejoin="round"/>
<path d="M33.7564 14.8003L27.9424 14.8033V8.98633" stroke="#040000" stroke-linecap="round" stroke-linejoin="round"/>
<path d="M35.4063 56.0638L35.8172 46.7068L21.0183 35.9088C20.6893 35.5798 20.4283 35.1891 20.2502 34.7592C20.0721 34.3294 19.9805 33.8686 19.9805 33.4033C19.9805 32.4635 20.3538 31.5623 21.0183 30.8978C21.6828 30.2333 22.584 29.86 23.5238 29.86C24.4635 29.86 25.3648 30.2333 26.0293 30.8978L36.8173 38.6848L39.2343 13.0738C39.2343 12.1341 39.6076 11.2329 40.272 10.5685C40.9365 9.90403 41.8376 9.53076 42.7773 9.53076C43.717 9.53076 44.6182 9.90403 45.2826 10.5685C45.9471 11.2329 46.3203 12.1341 46.3203 13.0738L43.9033 38.7598L45.7313 19.0748C45.7345 18.1371 46.1092 17.2388 46.7734 16.5768C47.4376 15.9149 48.3371 15.5432 49.2748 15.5432C50.2126 15.5432 51.1121 15.9149 51.7763 16.5768C52.4405 17.2388 52.8152 18.1371 52.8183 19.0748L50.9903 40.3108L52.1863 26.4158C52.2424 25.4522 52.6672 24.5471 53.3727 23.8882C54.0781 23.2293 55.0101 22.8671 55.9753 22.8768C56.4406 22.8768 56.9013 22.9684 57.3312 23.1465C57.7611 23.3245 58.1517 23.5855 58.4807 23.9145C58.8097 24.2435 59.0707 24.6341 59.2487 25.0639C59.4267 25.4938 59.5184 25.9545 59.5183 26.4198L58.0763 41.8589L58.8683 33.1928C58.8668 32.7265 58.9573 32.2645 59.1346 31.8332C59.312 31.4019 59.5728 31.0098 59.902 30.6795C60.2312 30.3492 60.6223 30.0871 61.053 29.9083C61.4837 29.7295 61.9455 29.6374 62.4118 29.6374C62.8782 29.6374 63.3399 29.7295 63.7706 29.9083C64.2013 30.0871 64.5925 30.3492 64.9217 30.6795C65.2509 31.0098 65.5116 31.4019 65.689 31.8332C65.8664 32.2645 65.9569 32.7265 65.9553 33.1928L63.4193 56.0638" fill="#FBFBFB"/>
<path d="M35.4063 56.0638L35.8172 46.7068L21.0183 35.9088C20.6893 35.5798 20.4283 35.1891 20.2502 34.7592C20.0721 34.3294 19.9805 33.8686 19.9805 33.4033C19.9805 32.4635 20.3538 31.5623 21.0183 30.8978C21.6828 30.2333 22.584 29.86 23.5238 29.86C24.4635 29.86 25.3648 30.2333 26.0293 30.8978L36.8173 38.6848L39.2343 13.0738C39.2343 12.1341 39.6076 11.2329 40.272 10.5685C40.9365 9.90403 41.8376 9.53076 42.7773 9.53076C43.717 9.53076 44.6182 9.90403 45.2826 10.5685C45.9471 11.2329 46.3203 12.1341 46.3203 13.0738L43.9033 38.7598L45.7313 19.0748C45.7345 18.1371 46.1092 17.2388 46.7734 16.5768C47.4376 15.9149 48.3371 15.5432 49.2748 15.5432C50.2126 15.5432 51.1121 15.9149 51.7763 16.5768C52.4405 17.2388 52.8152 18.1371 52.8183 19.0748L50.9903 40.3108L52.1863 26.4158C52.2424 25.4522 52.6672 24.5471 53.3727 23.8882C54.0781 23.2293 55.0101 22.8671 55.9753 22.8768C56.4406 22.8768 56.9013 22.9684 57.3312 23.1465C57.7611 23.3245 58.1517 23.5855 58.4807 23.9145C58.8097 24.2435 59.0707 24.6341 59.2487 25.0639C59.4267 25.4938 59.5184 25.9545 59.5183 26.4198L58.0763 41.8589L58.8683 33.1928C58.8668 32.7265 58.9573 32.2645 59.1346 31.8332C59.312 31.4019 59.5728 31.0098 59.902 30.6795C60.2312 30.3492 60.6223 30.0871 61.053 29.9083C61.4837 29.7295 61.9455 29.6374 62.4118 29.6374C62.8782 29.6374 63.3399 29.7295 63.7706 29.9083C64.2013 30.0871 64.5925 30.3492 64.9217 30.6795C65.2509 31.0098 65.5116 31.4019 65.689 31.8332C65.8664 32.2645 65.9569 32.7265 65.9553 33.1928L63.4193 56.0638" stroke="#040000" stroke-linecap="round" stroke-linejoin="round"/>
<path d="M65.2949 14.8135H71.6729" stroke="#040000" stroke-linecap="round" stroke-linejoin="round"/>
<path d="M65.2949 7.62439H71.6729" stroke="#040000" stroke-linecap="round" stroke-linejoin="round"/>
<path d="M68.4834 4.43555V10.8136" stroke="#040000" stroke-linecap="round" stroke-linejoin="round"/>
</svg>
