<svg width="60" height="53" viewBox="0 0 60 53" fill="none" xmlns="http://www.w3.org/2000/svg">
<path d="M10.0251 36.9668V40.6445H11.8571V41.5469H10.0251V45.8945H8.95871V36.9668H10.0251ZM1.0427 43.8438V37.8418H2.09543V39.8926H5.63645V37.8418H6.70285V43.8438H1.0427ZM2.09543 42.9688H5.63645V40.7402H2.09543V42.9688ZM2.42356 48.8477V45.0195H3.47629V47.9453H10.5857V48.8477H2.42356ZM23.557 42.873V43.748H12.4828V42.873H23.557ZM13.7132 39.5781C13.7132 38.1357 15.3744 37.2676 18.0199 37.2676C20.6517 37.2676 22.306 38.1357 22.3129 39.5781C22.306 41.0273 20.6517 41.8818 18.0199 41.875C15.3744 41.8818 13.7132 41.0273 13.7132 39.5781ZM13.8226 46.9336C13.8158 45.5459 15.3812 44.7734 18.0199 44.7871C20.6244 44.7734 22.1898 45.5459 22.2035 46.9336C22.1898 48.3418 20.6244 49.1143 18.0199 49.1074C15.3812 49.1143 13.8158 48.3418 13.8226 46.9336ZM14.8207 39.5781C14.8138 40.4873 16.0511 41.0273 18.0199 41.0273C19.9681 41.0273 21.2123 40.4873 21.2191 39.5781C21.2123 38.6689 19.9681 38.1289 18.0199 38.1426C16.0511 38.1289 14.8138 38.6689 14.8207 39.5781ZM14.9164 46.9336C14.9027 47.7744 16.0716 48.2598 18.0199 48.2461C19.9476 48.2598 21.1166 47.7744 21.1234 46.9336C21.1166 46.0859 19.9476 45.6006 18.0199 45.6074C16.0716 45.6006 14.9027 46.0859 14.9164 46.9336ZM28.626 38.8672C28.6123 40.6035 29.8496 42.1279 31.6338 42.7363L31.0322 43.5703C29.6924 43.0713 28.6396 42.0801 28.1133 40.8018C27.5938 42.2578 26.4863 43.3857 25.0166 43.9395L24.4287 43.0645C26.3018 42.4082 27.5459 40.7949 27.5596 38.9082V37.6504H28.626V38.8672ZM26.4111 46.8105C26.4043 45.3477 27.9561 44.5068 30.4854 44.5137C33.0078 44.5068 34.5596 45.3477 34.5596 46.8105C34.5596 48.2598 33.0078 49.0801 30.4854 49.0801C27.9561 49.0801 26.4043 48.2598 26.4111 46.8105ZM27.4775 46.8105C27.4707 47.6924 28.6191 48.2256 30.4854 48.2188C32.3447 48.2256 33.4932 47.6924 33.4932 46.8105C33.4932 45.9014 32.3447 45.3613 30.4854 45.3613C28.6191 45.3613 27.4707 45.9014 27.4775 46.8105ZM30.7314 40.4531V39.5645H33.4385V36.9531H34.5186V44.1582H33.4385V40.4531H30.7314ZM41.7067 38.3613V39.2363H37.9196V41.5742H41.5289V42.4355H37.9196V45.1836C39.7243 45.1768 40.8454 45.1221 42.1715 44.8828L42.2672 45.7715C40.8385 46.0449 39.6696 46.1064 37.6735 46.0996H36.8942V38.3613H41.7067ZM43.0739 48.4922V37.2129H44.1129V41.8477H45.7809V36.9531H46.82V49.1074H45.7809V42.7363H44.1129V48.4922H43.0739ZM57.9456 38.252V39.4688C57.9456 41 57.9456 42.7295 57.4944 45.375L56.4007 45.2656C56.8929 42.7773 56.8929 40.959 56.8929 39.4688V39.1406H49.5647V38.252H57.9456ZM48.3616 47.3164V46.4277H59.4358V47.3164H48.3616Z" fill="#666666"/>
<g clip-path="url(#clip0_265_3062)">
<rect width="30" height="28" transform="translate(15)" fill="white"/>
<path d="M44.0781 13.9639C44.0781 21.6959 37.8101 27.9639 30.0781 27.9639C22.3461 27.9639 16.0781 21.6959 16.0781 13.9639C16.0781 6.23188 22.3461 -0.0361328 30.0781 -0.0361328C37.8101 -0.0361328 44.0781 6.23188 44.0781 13.9639Z" fill="#AEAEAE" fill-opacity="0.25"/>
<path d="M38.4777 13.9638C38.4777 18.603 34.7169 22.3638 30.0777 22.3638C25.4385 22.3638 21.6777 18.603 21.6777 13.9638C21.6777 9.32465 25.4385 5.56384 30.0777 5.56384C34.7169 5.56384 38.4777 9.32465 38.4777 13.9638Z" fill="black"/>
<path d="M29.6997 10.8141H30.4557V13.5861H33.2277V14.3421H30.4557V17.1141H29.6997V14.3421H26.9277V13.5861H29.6997V10.8141Z" fill="white"/>
</g>
<defs>
<clipPath id="clip0_265_3062">
<rect width="30" height="28" fill="white" transform="translate(15)"/>
</clipPath>
</defs>
</svg>
