<svg width="52" height="53" viewBox="0 0 52 53" fill="none" xmlns="http://www.w3.org/2000/svg">
<path d="M11.1286 36.9668V49.1211H10.0349V46.0996H7.23215V45.2793H10.0349V36.9668H11.1286ZM1.01145 43.3652C3.32883 43.3584 6.41184 43.3516 9.09152 42.9688L9.15988 43.7754C7.95676 43.9805 6.70578 44.0967 5.49582 44.1719V48.7383H4.41574V44.2266C3.25363 44.2676 2.13938 44.2812 1.16184 44.2812L1.01145 43.3652ZM1.94113 39.9609C1.9343 38.5322 3.19211 37.5684 5.01731 37.5684C6.82199 37.5684 8.08664 38.5322 8.07981 39.9609C8.08664 41.4033 6.82199 42.333 5.01731 42.3398C3.19211 42.333 1.9343 41.4033 1.94113 39.9609ZM2.95285 39.9609C2.94602 40.8838 3.79367 41.5127 5.01731 41.5059C6.21359 41.5127 7.06125 40.8838 7.06809 39.9609C7.06125 39.0449 6.21359 38.4092 5.01731 38.4023C3.79367 38.4092 2.94602 39.0449 2.95285 39.9609ZM19.4925 37.8008C19.4857 40.9043 17.6947 43.1738 13.7914 44.3223L13.3812 43.4473C15.4593 42.8525 16.8197 41.957 17.5853 40.8291L13.4769 41.1504L13.2855 40.2617L18.016 40.0361C18.1869 39.6055 18.2963 39.1543 18.3373 38.6758H13.9007V37.8008H19.4925ZM14.9125 46.7559C14.9125 45.293 16.4779 44.4453 19.0277 44.4453C21.5433 44.4453 23.1224 45.293 23.1156 46.7559C23.1224 48.2393 21.5433 49.0801 19.0277 49.0801C16.4779 49.0801 14.9125 48.2393 14.9125 46.7559ZM15.9789 46.7559C15.9857 47.6719 17.1341 48.2324 19.0277 48.2324C20.8871 48.2324 22.056 47.6719 22.0629 46.7559C22.056 45.8535 20.8871 45.293 19.0277 45.293C17.1341 45.293 15.9857 45.8535 15.9789 46.7559ZM21.9945 44.2812V36.9668H23.0609V44.2812H21.9945ZM39.4879 46.6465V47.5488H28.359V46.6465H33.3629V43.6797H29.6715V37.9785H38.1071V43.6797H34.4157V46.6465H39.4879ZM30.7243 42.8184H37.068V38.8398H30.7243V42.8184ZM50.135 42.8047V43.6934H41.7405V38.0879H50.012V38.9766H42.8069V42.8047H50.135ZM40.3186 47.4531V46.5508H51.4475V47.4531H40.3186Z" fill="#666666"/>
<g clip-path="url(#clip0_265_3042)">
<rect width="30" height="28" transform="translate(11.5)" fill="white"/>
<path d="M18.8095 28C20.117 27.8858 21.3363 27.2922 22.2337 26.3331C23.6188 25.017 24.8292 23.528 25.835 21.9027L26.3006 21.0938L26.5789 21.9848C26.7173 22.4282 26.8609 22.9269 26.9993 23.479C27.5505 25.6862 28.3423 27.9425 30.0397 27.9425C30.5056 27.9374 30.9651 27.8325 31.3872 27.6349C31.8092 27.4373 32.1842 27.1515 32.4869 26.7968C32.7906 26.416 33.0034 25.9709 33.1093 25.4953C33.2152 25.0197 33.2112 24.5262 33.0978 24.0524C32.6393 22.0065 32.04 19.9948 31.304 18.0318L30.9512 17.0598L31.8729 17.5266C32.6831 17.9838 33.6028 18.2101 34.5324 18.181C35.0699 18.1303 35.578 17.9117 35.9848 17.5562C36.3916 17.2007 36.6767 16.7262 36.7997 16.1997C36.9233 15.8032 36.9174 15.3776 36.7828 14.9846C36.6483 14.5917 36.3921 14.252 36.0516 14.0148C35.5889 13.7289 35.1122 13.4664 34.6234 13.2283C33.2324 12.5249 32.323 12.0645 31.958 10.1407C31.868 9.64531 31.6721 9.1752 31.3838 8.7626C31.0955 8.35 30.7216 8.00467 30.2877 7.75021L29.7438 7.43144L30.2916 7.34234C31.0747 7.12041 31.7641 6.64843 32.255 5.9982C32.7458 5.34796 33.0112 4.55503 33.0108 3.73992C33.0104 2.9248 32.7443 2.13211 32.2529 1.48233C31.7614 0.832561 31.0716 0.361257 30.2882 0.140055C29.5048 -0.0811459 28.6707 -0.0401254 27.9128 0.256858C27.1548 0.553841 26.5144 1.09056 26.0889 1.78541C25.6634 2.48027 25.476 3.29525 25.5554 4.10648C25.6347 4.9177 25.9764 5.6808 26.5285 6.27976L26.9399 6.63221H26.3064C25.1943 6.60324 24.0891 6.81593 23.0668 7.25566C22.0446 7.69539 21.1297 8.35169 20.385 9.17942C19.2285 10.3783 18.3248 11.7981 17.7276 13.3541C17.3749 14.3026 16.9146 16.0238 17.7926 16.9021C18.0252 17.1329 18.3083 17.3064 18.6194 17.4087C18.9306 17.511 19.2613 17.5393 19.5852 17.4914C19.9161 17.4492 20.2365 17.347 20.5308 17.1898L21.0262 16.9287L21.1236 17.4808C21.2224 17.8947 21.2561 18.3215 21.2236 18.7459C20.6191 20.03 19.6569 21.1118 18.4529 21.8611C18.1722 22.0588 17.9044 22.2742 17.651 22.5059C15.5396 24.6183 15.9844 26.121 16.7289 27.0099C16.9656 27.3043 17.2624 27.5445 17.5994 27.7147C17.9364 27.8849 18.3057 27.9811 18.6828 27.9968L18.8095 28ZM26.7147 3.76566C26.7144 3.25914 26.8641 2.76388 27.1449 2.34258C27.4257 1.92128 27.8249 1.59287 28.2921 1.39884C28.7593 1.20481 29.2735 1.1539 29.7696 1.25256C30.2657 1.35122 30.7214 1.59499 31.0791 1.95307C31.4368 2.31116 31.6805 2.76747 31.7792 3.26425C31.8779 3.76102 31.8273 4.27595 31.6338 4.74391C31.4402 5.21187 31.1124 5.61182 30.6918 5.89318C30.2713 6.17455 29.7768 6.3247 29.271 6.32459C28.5935 6.32362 27.9441 6.05374 27.4649 5.57408C26.9857 5.09443 26.716 4.44413 26.7147 3.76566ZM17.6314 26.2521C17.0003 25.5007 17.2781 24.5479 18.4817 23.3415C18.6502 23.185 18.8296 23.0407 19.0186 22.9098L19.1522 22.8107C20.5399 21.9327 21.6424 20.6692 22.3252 19.1743C22.4541 18.5777 22.4452 17.9594 22.2991 17.3667C22.1076 16.6768 22.1148 15.9468 22.3198 15.2608L22.4055 15.1244C23.1186 14.1578 23.8882 13.2343 24.7101 12.3587C24.8117 12.2497 24.8684 12.1063 24.8686 11.9572C24.8689 11.8081 24.8128 11.6645 24.7115 11.5552C24.6103 11.4459 24.4714 11.379 24.323 11.3682C24.1745 11.3573 24.0274 11.4031 23.9114 11.4965C22.9313 12.3507 22.0916 13.3542 21.4232 14.47C21.3801 14.534 21.3466 14.5872 21.3157 14.6405L21.1002 14.9944C20.9389 15.3242 20.7065 15.6142 20.4197 15.8433C20.133 16.0723 19.7991 16.2348 19.4421 16.3191C19.302 16.3426 19.1584 16.335 19.0215 16.2969C18.8847 16.2588 18.7578 16.191 18.6499 16.0985L18.5775 16.0058C18.1162 15.2064 19.1586 12.0741 21.2168 10.0129C21.8855 9.2407 22.7299 8.64092 23.6787 8.26418C24.6275 7.88745 25.6529 7.74482 26.6683 7.8483C28.6164 8.11687 30.4649 8.60713 30.7985 10.3614C31.2737 12.8585 32.6386 13.5471 34.0833 14.276C34.5404 14.5083 34.9687 14.7258 35.4189 15.0114C35.5491 15.1156 35.6426 15.2589 35.6858 15.4201C35.7289 15.5814 35.7195 15.7522 35.6589 15.9077L35.6583 15.9109C35.5928 16.1957 35.4412 16.4534 35.2242 16.6489C35.0072 16.8444 34.7354 16.9681 34.4456 17.0033C32.3667 17.1366 29.8961 14.6544 29.7907 14.5478C29.6905 14.4456 29.5565 14.3835 29.4139 14.373C29.2713 14.3625 29.1297 14.4044 29.0157 14.4909C28.9017 14.5773 28.823 14.7024 28.7943 14.8427C28.7657 14.983 28.789 15.129 28.86 15.2533C30.192 18.1446 31.2239 21.1652 31.9394 24.2677C32.0184 24.5714 32.027 24.8891 31.9647 25.1966C31.9023 25.5042 31.7707 25.7934 31.5797 26.0422C31.387 26.2628 31.1505 26.4409 30.8854 26.5651C30.6203 26.6893 30.3323 26.7569 30.0397 26.7637C29.3725 26.7637 28.7339 25.5626 28.1428 23.1923C27.8155 21.8032 27.3502 20.4504 26.7539 19.1541C26.6993 19.0457 26.6125 18.9568 26.5056 18.8996C26.3986 18.8424 26.2766 18.8197 26.1562 18.8345C26.0359 18.8493 25.923 18.9009 25.833 18.9823C25.7431 19.0638 25.6804 19.171 25.6535 19.2894C25.0889 21.8068 22.4443 24.4542 21.3151 25.585C20.6787 26.278 19.8139 26.7177 18.8797 26.8234C18.8238 26.8234 18.7679 26.8202 18.7126 26.8149C18.5022 26.806 18.2964 26.751 18.1095 26.6538C17.9227 26.5565 17.7595 26.4194 17.6314 26.2521Z" fill="#151515"/>
</g>
<defs>
<clipPath id="clip0_265_3042">
<rect width="30" height="28" fill="white" transform="translate(11.5)"/>
</clipPath>
</defs>
</svg>
