<svg width="53" height="53" viewBox="0 0 53 53" fill="none" xmlns="http://www.w3.org/2000/svg">
<path d="M11.5772 43.1328V44.0215H0.502968V43.1328H11.5772ZM1.14555 41.5059C3.42191 41.2939 5.34965 40.3711 5.44535 39.0176H1.65141V38.1426H5.50687V36.9258H6.55961V38.1426H10.4561V39.0176H6.62797C6.71684 40.3711 8.65141 41.2939 10.9209 41.5059L10.5928 42.3398C8.58305 42.1279 6.77836 41.4033 6.04008 40.1797C5.29496 41.4033 3.49711 42.1279 1.48734 42.3398L1.14555 41.5059ZM1.84281 47.0703C1.83598 45.7646 3.39457 45.0605 6.04008 45.0605C8.67191 45.0605 10.21 45.7646 10.2237 47.0703C10.21 48.376 8.67191 49.0801 6.04008 49.0801C3.39457 49.0801 1.83598 48.376 1.84281 47.0703ZM2.93656 47.0703C2.92289 47.8359 4.07133 48.2598 6.04008 48.2461C7.98832 48.2598 9.13676 47.8359 9.14359 47.0703C9.13676 46.3047 7.98832 45.874 6.04008 45.8672C4.07133 45.874 2.92289 46.3047 2.93656 47.0703ZM21.9645 36.9531V40.6582H23.7966V41.5605H21.9645V45.8535H20.8845V36.9531H21.9645ZM12.4762 43.584C15.3952 42.6748 17.2887 40.9453 17.5143 38.7988H12.9821V37.8965H18.6833C18.6833 41.0273 16.4479 43.3516 12.9411 44.4453L12.4762 43.584ZM14.3493 48.8477V44.9512H15.4157V47.9453H22.5251V48.8477H14.3493ZM34.4437 36.9531V49.1348H33.3636V36.9531H34.4437ZM24.8734 42.1348C24.8802 39.5508 26.1653 37.9033 27.9769 37.8965C29.7816 37.9033 31.0872 39.5508 31.0804 42.1348C31.0872 44.7256 29.7816 46.3662 27.9769 46.3594C26.1653 46.3662 24.8802 44.7256 24.8734 42.1348ZM25.9124 42.1348C25.9124 44.1104 26.7601 45.4092 27.9769 45.4023C29.2005 45.4092 30.0413 44.1104 30.0413 42.1348C30.0413 40.1592 29.2005 38.8604 27.9769 38.8535C26.7601 38.8604 25.9124 40.1592 25.9124 42.1348ZM47.4697 42.9688V43.8301H36.3818V42.9688H41.3994V41.5469H37.79V37.5273H46.0888V38.3887H38.8427V40.6719H46.1709V41.5469H42.4384V42.9688H47.4697ZM37.7216 46.9062C37.7148 45.5186 39.2939 44.7256 41.9189 44.7188C44.5234 44.7256 46.0888 45.5186 46.1025 46.9062C46.0888 48.3076 44.5234 49.0938 41.9189 49.1074C39.2939 49.0938 37.7148 48.3076 37.7216 46.9062ZM38.8154 46.9062C38.8017 47.7607 39.9707 48.2529 41.9189 48.2461C43.8466 48.2529 45.0156 47.7607 45.0224 46.9062C45.0156 46.0654 43.8466 45.5664 41.9189 45.5664C39.9707 45.5664 38.8017 46.0654 38.8154 46.9062Z" fill="#666666"/>
<rect width="30" height="28" transform="translate(9)" fill="white"/>
<path fill-rule="evenodd" clip-rule="evenodd" d="M30.3965 2.84631H37.8965V3.84631H31.3965V10.8463H24.3965V17.8463H17.3965V24.8463H9.89648V23.8463H16.3965V16.8463H23.3965V9.84631H30.3965V2.84631Z" fill="black"/>
</svg>
